<?xml version="1.0" encoding="UTF-8" standalone="no"?>
<!-- Created with Inkscape (http://www.inkscape.org/) -->

<svg
   xmlns:dc="http://purl.org/dc/elements/1.1/"
   xmlns:cc="http://creativecommons.org/ns#"
   xmlns:rdf="http://www.w3.org/1999/02/22-rdf-syntax-ns#"
   xmlns:svg="http://www.w3.org/2000/svg"
   xmlns="http://www.w3.org/2000/svg"
   xmlns:sodipodi="http://sodipodi.sourceforge.net/DTD/sodipodi-0.dtd"
   xmlns:inkscape="http://www.inkscape.org/namespaces/inkscape"
   width="375.32565mm"
   height="286.79666mm"
   viewBox="0 0 375.32565 286.79666"
   version="1.1"
   id="svg8"
   inkscape:version="0.92.4 (unknown)"
   sodipodi:docname="motivation_fig.svg"
   inkscape:export-filename="/home/yzerlaut/work/osb_meeting_2019/figs/motivation4.png"
   inkscape:export-xdpi="400"
   inkscape:export-ydpi="400">
  <defs
     id="defs2">
    <marker
       inkscape:stockid="Arrow1Mend"
       orient="auto"
       refY="0"
       refX="0"
       id="marker10227"
       style="overflow:visible"
       inkscape:isstock="true">
      <path
         id="path10225"
         d="M 0,0 5,-5 -12.5,0 5,5 Z"
         style="fill:#48658f;fill-opacity:1;fill-rule:evenodd;stroke:#48658f;stroke-width:1.00000003pt;stroke-opacity:1"
         transform="matrix(-0.4,0,0,-0.4,-4,0)"
         inkscape:connector-curvature="0" />
    </marker>
    <marker
       inkscape:stockid="Arrow1Mstart"
       orient="auto"
       refY="0"
       refX="0"
       id="marker10175"
       style="overflow:visible"
       inkscape:isstock="true">
      <path
         id="path10173"
         d="M 0,0 5,-5 -12.5,0 5,5 Z"
         style="fill:#48658f;fill-opacity:1;fill-rule:evenodd;stroke:#48658f;stroke-width:1.00000003pt;stroke-opacity:1"
         transform="matrix(0.4,0,0,0.4,4,0)"
         inkscape:connector-curvature="0" />
    </marker>
    <marker
       inkscape:stockid="Arrow1Mend"
       orient="auto"
       refY="0"
       refX="0"
       id="marker7049"
       style="overflow:visible"
       inkscape:isstock="true">
      <path
         id="path7047"
         d="M 0,0 5,-5 -12.5,0 5,5 Z"
         style="fill:#48658f;fill-opacity:1;fill-rule:evenodd;stroke:#48658f;stroke-width:1.00000003pt;stroke-opacity:1"
         transform="matrix(-0.4,0,0,-0.4,-4,0)"
         inkscape:connector-curvature="0" />
    </marker>
    <marker
       inkscape:stockid="Arrow1Mstart"
       orient="auto"
       refY="0"
       refX="0"
       id="marker7009"
       style="overflow:visible"
       inkscape:isstock="true">
      <path
         id="path7007"
         d="M 0,0 5,-5 -12.5,0 5,5 Z"
         style="fill:#48658f;fill-opacity:1;fill-rule:evenodd;stroke:#48658f;stroke-width:1.00000003pt;stroke-opacity:1"
         transform="matrix(0.4,0,0,0.4,4,0)"
         inkscape:connector-curvature="0" />
    </marker>
    <marker
       inkscape:isstock="true"
       style="overflow:visible"
       id="marker6205"
       refX="0"
       refY="0"
       orient="auto"
       inkscape:stockid="Arrow1Mend"
       inkscape:collect="always">
      <path
         transform="matrix(-0.4,0,0,-0.4,-4,0)"
         style="fill:#48658f;fill-opacity:1;fill-rule:evenodd;stroke:#48658f;stroke-width:1.00000003pt;stroke-opacity:1"
         d="M 0,0 5,-5 -12.5,0 5,5 Z"
         id="path6203"
         inkscape:connector-curvature="0" />
    </marker>
    <marker
       inkscape:isstock="true"
       style="overflow:visible"
       id="marker6177"
       refX="0"
       refY="0"
       orient="auto"
       inkscape:stockid="Arrow1Mstart"
       inkscape:collect="always">
      <path
         transform="matrix(0.4,0,0,0.4,4,0)"
         style="fill:#48658f;fill-opacity:1;fill-rule:evenodd;stroke:#48658f;stroke-width:1.00000003pt;stroke-opacity:1"
         d="M 0,0 5,-5 -12.5,0 5,5 Z"
         id="path6175"
         inkscape:connector-curvature="0" />
    </marker>
    <marker
       inkscape:stockid="Arrow1Mend"
       orient="auto"
       refY="0"
       refX="0"
       id="Arrow1Mend"
       style="overflow:visible"
       inkscape:isstock="true"
       inkscape:collect="always">
      <path
         id="path5112"
         d="M 0,0 5,-5 -12.5,0 5,5 Z"
         style="fill:#48658f;fill-opacity:1;fill-rule:evenodd;stroke:#48658f;stroke-width:1.00000003pt;stroke-opacity:1"
         transform="matrix(-0.4,0,0,-0.4,-4,0)"
         inkscape:connector-curvature="0" />
    </marker>
    <marker
       inkscape:stockid="Arrow1Mstart"
       orient="auto"
       refY="0"
       refX="0"
       id="Arrow1Mstart"
       style="overflow:visible"
       inkscape:isstock="true"
       inkscape:collect="always">
      <path
         id="path5109"
         d="M 0,0 5,-5 -12.5,0 5,5 Z"
         style="fill:#48658f;fill-opacity:1;fill-rule:evenodd;stroke:#48658f;stroke-width:1.00000003pt;stroke-opacity:1"
         transform="matrix(0.4,0,0,0.4,4,0)"
         inkscape:connector-curvature="0" />
    </marker>
  </defs>
  <sodipodi:namedview
     id="base"
     pagecolor="#ffffff"
     bordercolor="#666666"
     borderopacity="1.0"
     inkscape:pageopacity="0.0"
     inkscape:pageshadow="2"
     inkscape:zoom="0.49497475"
     inkscape:cx="951.48565"
     inkscape:cy="650.22343"
     inkscape:document-units="mm"
     inkscape:current-layer="layer4"
     showgrid="false"
     inkscape:window-width="1920"
     inkscape:window-height="1025"
     inkscape:window-x="0"
     inkscape:window-y="27"
     inkscape:window-maximized="1"
     showguides="false"
     fit-margin-top="0"
     fit-margin-left="0"
     fit-margin-right="0"
     fit-margin-bottom="0" />
  <metadata
     id="metadata5">
    <rdf:RDF>
      <cc:Work
         rdf:about="">
        <dc:format>image/svg+xml</dc:format>
        <dc:type
           rdf:resource="http://purl.org/dc/dcmitype/StillImage" />
        <dc:title />
      </cc:Work>
    </rdf:RDF>
  </metadata>
  <g
     inkscape:label="Layer 1"
     inkscape:groupmode="layer"
     id="layer1"
     style="display:none"
     transform="translate(-92.571969,-15.144299)">
    <ellipse
       id="path34"
       cx="233.86998"
       cy="157.97684"
       rx="43.541473"
       ry="21.558426"
       style="fill:#b3b3b3;stroke-width:0.26867878"
       transform="rotate(-9.5509115)" />
    <flowRoot
       style="font-style:normal;font-weight:normal;font-size:10.58333302px;line-height:1.25;font-family:sans-serif;letter-spacing:0px;word-spacing:0px;fill:#000000;fill-opacity:1;stroke:none;stroke-width:0.26458332"
       id="flowRoot54"
       xml:space="preserve"
       transform="matrix(0.92485428,0,0,0.92485428,178.1044,15.347371)"><flowRegion
         id="flowRegion50"
         style="stroke-width:0.26458332"><rect
           y="96.29464"
           x="34.773811"
           height="32.505959"
           width="98.651787"
           id="rect48"
           style="stroke-width:0.07000434" /></flowRegion><flowPara
         style="text-align:center;text-anchor:middle;stroke-width:0.26458332"
         id="flowPara251">Model</flowPara><flowPara
         style="text-align:center;text-anchor:middle;stroke-width:0.26458332"
         id="flowPara373">Simulation</flowPara><flowPara
         style="text-align:center;text-anchor:middle;stroke-width:0.26458332"
         id="flowPara56" /></flowRoot>    <rect
       style="fill:#447821;stroke:none;stroke-width:0.26458332"
       id="rect229"
       width="62.006512"
       height="32.606884"
       x="146.33749"
       y="111.39137" />
    <rect
       y="87.233498"
       x="361.52087"
       height="30.454567"
       width="63.278366"
       id="rect245"
       style="fill:#447821;stroke:none;stroke-width:0.26458332" />
    <rect
       style="fill:#447821;stroke:none;stroke-width:0.26458332"
       id="rect247"
       width="78.578194"
       height="22.709085"
       x="249.72363"
       y="176.58714" />
    <flowRoot
       transform="matrix(0.68287668,0,0,0.68287668,335.04559,27.629425)"
       xml:space="preserve"
       id="flowRoot385"
       style="font-style:normal;font-weight:normal;font-size:10.58333302px;line-height:1.25;font-family:sans-serif;letter-spacing:0px;word-spacing:0px;fill:#ffffff;fill-opacity:1;stroke:none;stroke-width:0.26458332"><flowRegion
         style="fill:#ffffff;stroke-width:0.26458332"
         id="flowRegion377"><rect
           style="fill:#ffffff;stroke-width:0.07000434"
           id="rect375"
           width="98.651787"
           height="32.505959"
           x="34.773811"
           y="96.29464" /></flowRegion><flowPara
         id="flowPara383"
         style="text-align:center;text-anchor:middle;fill:#ffffff;stroke-width:0.26458332">using purpose-specific dataset</flowPara></flowRoot>    <flowRoot
       style="font-style:normal;font-weight:normal;font-size:10.58333302px;line-height:1.25;font-family:sans-serif;letter-spacing:0px;word-spacing:0px;fill:#ffffff;fill-opacity:1;stroke:none;stroke-width:0.26458332"
       id="flowRoot400"
       xml:space="preserve"
       transform="matrix(0.68287668,0,0,0.68287668,224.86549,113.5056)"><flowRegion
         id="flowRegion396"
         style="fill:#ffffff;stroke-width:0.26458332"><rect
           y="96.29464"
           x="34.773811"
           height="30.568687"
           width="117.19423"
           id="rect394"
           style="fill:#ffffff;stroke-width:0.07000434" /></flowRegion><flowPara
         style="text-align:center;text-anchor:middle;fill:#ffffff;stroke-width:0.26458332"
         id="flowPara398">scientific journal</flowPara><flowPara
         style="text-align:center;text-anchor:middle;fill:#ffffff;stroke-width:0.26458332"
         id="flowPara402">(+ sharing platform)</flowPara></flowRoot>    <flowRoot
       style="font-style:normal;font-weight:normal;font-size:10.58333302px;line-height:1.25;font-family:sans-serif;letter-spacing:0px;word-spacing:0px;fill:#ffffff;fill-opacity:1;stroke:none;stroke-width:0.26458332"
       id="flowRoot410"
       xml:space="preserve"
       transform="matrix(0.68287668,0,0,0.68287668,121.16097,49.098478)"><flowRegion
         id="flowRegion406"
         style="fill:#ffffff;stroke-width:0.26458332"><rect
           y="96.29464"
           x="34.773811"
           height="54.423672"
           width="92.389587"
           id="rect404"
           style="fill:#ffffff;stroke-width:0.07000434" /></flowRegion><flowPara
         style="text-align:center;text-anchor:middle;fill:#ffffff;stroke-width:0.26458332"
         id="flowPara408">code in user-prefered simulation tool</flowPara></flowRoot>  </g>
  <g
     inkscape:groupmode="layer"
     id="layer2"
     inkscape:label="Layer 2"
     style="display:inline"
     transform="translate(-92.571969,-15.144299)">
    <ellipse
       transform="rotate(-9.5509117)"
       style="fill:#80b3ff;fill-opacity:1;stroke-width:0.2046674"
       ry="16.422239"
       rx="33.167934"
       cy="159.35246"
       cx="226.94769"
       id="ellipse253" />
    <ellipse
       id="ellipse365"
       cx="282.16376"
       cy="135.47093"
       rx="33.167934"
       ry="16.422239"
       style="fill:#80b3ff;fill-opacity:1;stroke-width:0.2046674"
       transform="rotate(-9.5509117)" />
    <ellipse
       transform="rotate(-9.5509117)"
       style="fill:#80b3ff;fill-opacity:1;stroke-width:0.2046674"
       ry="16.422239"
       rx="33.167934"
       cy="212.01315"
       cx="123.18226"
       id="ellipse367" />
    <ellipse
       id="ellipse369"
       cx="176.72614"
       cy="186.51967"
       rx="33.167934"
       ry="16.422239"
       style="fill:#80b3ff;fill-opacity:1;stroke-width:0.2046674"
       transform="rotate(-9.5509117)" />
    <flowRoot
       style="font-style:normal;font-weight:normal;font-size:10.58333302px;line-height:1.25;font-family:sans-serif;letter-spacing:0px;word-spacing:0px;fill:#80b3ff;fill-opacity:1;stroke:none;stroke-width:0.26458332"
       id="flowRoot422"
       xml:space="preserve"
       transform="matrix(0.68138346,-0.49814983,0.49814983,0.68138346,163.54439,109.55086)"><flowRegion
         id="flowRegion414"
         style="fill:#80b3ff;fill-opacity:1;stroke-width:0.26458332"><rect
           y="96.29464"
           x="34.773811"
           height="32.505959"
           width="98.651787"
           id="rect412"
           style="fill:#80b3ff;fill-opacity:1;stroke-width:0.07000434" /></flowRegion><flowPara
         style="font-style:normal;font-variant:normal;font-weight:bold;font-stretch:normal;font-family:sans-serif;-inkscape-font-specification:'sans-serif Bold';text-align:center;text-anchor:middle;fill:#80b3ff;fill-opacity:1;stroke-width:0.26458332"
         id="flowPara420">Model substrate</flowPara></flowRoot>    <ellipse
       id="ellipse426"
       cx="285.94449"
       cy="215.64066"
       rx="56.028519"
       ry="31.32374"
       style="fill:#80b3ff;stroke-width:0.34573182"
       transform="rotate(7.7518425)" />
    <flowRoot
       style="font-style:normal;font-weight:normal;font-size:10.58333302px;line-height:1.25;font-family:sans-serif;letter-spacing:0px;word-spacing:0px;fill:#000000;fill-opacity:1;stroke:none;stroke-width:0.26458332"
       id="flowRoot438"
       xml:space="preserve"
       transform="matrix(0.92485427,0,0,0.92485427,174.93468,154.389)"><flowRegion
         id="flowRegion430"
         style="stroke-width:0.26458332"><rect
           y="96.29464"
           x="34.773811"
           height="32.505959"
           width="98.651787"
           id="rect428"
           style="stroke-width:0.07000434" /></flowRegion><flowPara
         style="font-style:normal;font-variant:normal;font-weight:bold;font-stretch:normal;font-family:sans-serif;-inkscape-font-specification:'sans-serif Bold';text-align:center;text-anchor:middle;stroke-width:0.26458332"
         id="flowPara436">Applications</flowPara><flowPara
         style="font-style:normal;font-variant:normal;font-weight:bold;font-stretch:normal;font-family:sans-serif;-inkscape-font-specification:'sans-serif Bold';text-align:center;text-anchor:middle;stroke-width:0.26458332"
         id="flowPara455" /></flowRoot>    <ellipse
       transform="rotate(7.7518425)"
       style="fill:#80b3ff;stroke-width:0.31969801"
       ry="28.965042"
       rx="51.809536"
       cy="-11.127933"
       cx="413.0209"
       id="ellipse445" />
    <flowRoot
       transform="matrix(0.92485427,0,0,0.92485427,321.27224,-62.478096)"
       xml:space="preserve"
       id="flowRoot453"
       style="font-style:normal;font-weight:normal;font-size:10.58333302px;line-height:1.25;font-family:sans-serif;letter-spacing:0px;word-spacing:0px;fill:#000000;fill-opacity:1;stroke:none;stroke-width:0.26458332"><flowRegion
         style="stroke-width:0.26458332"
         id="flowRegion449"><rect
           style="stroke-width:0.07000434"
           id="rect447"
           width="118.88078"
           height="40.019585"
           x="34.773811"
           y="96.29464" /></flowRegion><flowPara
         id="flowPara451"
         style="font-style:normal;font-variant:normal;font-weight:bold;font-stretch:normal;font-family:sans-serif;-inkscape-font-specification:'sans-serif Bold';text-align:center;text-anchor:middle;stroke-width:0.26458332">Large</flowPara><flowPara
         style="font-style:normal;font-variant:normal;font-weight:bold;font-stretch:normal;font-family:sans-serif;-inkscape-font-specification:'sans-serif Bold';text-align:center;text-anchor:middle;stroke-width:0.26458332"
         id="flowPara485">Experimental</flowPara><flowPara
         style="font-style:normal;font-variant:normal;font-weight:bold;font-stretch:normal;font-family:sans-serif;-inkscape-font-specification:'sans-serif Bold';text-align:center;text-anchor:middle;stroke-width:0.26458332"
         id="flowPara487"> Databases</flowPara></flowRoot>    <ellipse
       id="ellipse528"
       cx="165.56221"
       cy="314.64786"
       rx="33.496277"
       ry="21.429682"
       style="fill:#80b3ff;fill-opacity:1;stroke-width:0.23495214"
       transform="matrix(0.9764721,-0.21564374,0.12715272,0.99188315,0,0)" />
    <flowRoot
       style="font-style:normal;font-weight:normal;font-size:10.58333302px;line-height:1.25;font-family:sans-serif;letter-spacing:0px;word-spacing:0px;fill:#000000;fill-opacity:1;stroke:none;stroke-width:0.26458332"
       id="flowRoot548"
       xml:space="preserve"
       transform="matrix(0.82503317,0,0,0.82503317,179.96994,35.620928)"><flowRegion
         id="flowRegion540"
         style="stroke-width:0.26458332"><rect
           y="96.29464"
           x="34.773811"
           height="32.505959"
           width="98.651787"
           id="rect538"
           style="stroke-width:0.07000434" /></flowRegion><flowPara
         style="text-align:center;text-anchor:middle;stroke-width:0.26458332"
         id="flowPara546">user PC</flowPara></flowRoot>    <flowRoot
       transform="matrix(0.82503317,0,0,0.82503317,135.51993,66.312598)"
       xml:space="preserve"
       id="flowRoot561"
       style="font-style:normal;font-weight:normal;font-size:10.58333302px;line-height:1.25;font-family:sans-serif;letter-spacing:0px;word-spacing:0px;fill:#000000;fill-opacity:1;stroke:none;stroke-width:0.26458332"><flowRegion
         style="stroke-width:0.26458332"
         id="flowRegion557"><rect
           style="stroke-width:0.07000434"
           id="rect555"
           width="98.651787"
           height="32.505959"
           x="34.773811"
           y="96.29464" /></flowRegion><flowPara
         id="flowPara559"
         style="text-align:center;text-anchor:middle;stroke-width:0.26458332">Simulation</flowPara><flowPara
         style="text-align:center;text-anchor:middle;stroke-width:0.26458332"
         id="flowPara573">platform</flowPara></flowRoot>    <flowRoot
       style="font-style:normal;font-weight:normal;font-size:10.58333302px;line-height:1.25;font-family:sans-serif;letter-spacing:0px;word-spacing:0px;fill:#000000;fill-opacity:1;stroke:none;stroke-width:0.26458332"
       id="flowRoot569"
       xml:space="preserve"
       transform="matrix(0.82503317,0,0,0.82503317,88.424073,100.17923)"><flowRegion
         id="flowRegion565"
         style="stroke-width:0.26458332"><rect
           y="96.29464"
           x="34.773811"
           height="32.505959"
           width="98.651787"
           id="rect563"
           style="stroke-width:0.07000434" /></flowRegion><flowPara
         style="text-align:center;text-anchor:middle;stroke-width:0.26458332"
         id="flowPara567">Neuromorphic</flowPara><flowPara
         style="text-align:center;text-anchor:middle;stroke-width:0.26458332"
         id="flowPara571">hardware</flowPara></flowRoot>    <flowRoot
       transform="matrix(0.79672971,0,0,0.79672971,93.258449,186.36523)"
       xml:space="preserve"
       id="flowRoot581"
       style="font-style:italic;font-variant:normal;font-weight:normal;font-stretch:normal;font-size:10.58333302px;line-height:1.25;font-family:sans-serif;-inkscape-font-specification:'sans-serif Italic';letter-spacing:0px;word-spacing:0px;fill:#000000;fill-opacity:1;stroke:none;stroke-width:0.26458332"><flowRegion
         style="font-style:italic;font-variant:normal;font-weight:normal;font-stretch:normal;font-family:sans-serif;-inkscape-font-specification:'sans-serif Italic';stroke-width:0.26458332"
         id="flowRegion577"><rect
           style="font-style:italic;font-variant:normal;font-weight:normal;font-stretch:normal;font-family:sans-serif;-inkscape-font-specification:'sans-serif Italic';stroke-width:0.07000434"
           id="rect575"
           width="200.95267"
           height="16.322765"
           x="34.773811"
           y="96.29464" /></flowRegion><flowPara
         id="flowPara579"
         style="font-style:italic;font-variant:normal;font-weight:normal;font-stretch:normal;font-family:sans-serif;-inkscape-font-specification:'sans-serif Italic';text-align:center;text-anchor:middle;stroke-width:0.26458332">medicine</flowPara></flowRoot>    <ellipse
       transform="matrix(-0.99846299,-0.05542267,-0.05542267,0.99846299,0,0)"
       style="fill:#80b3ff;fill-opacity:1;stroke-width:0.2046674"
       ry="16.422239"
       rx="51.179031"
       cy="250.24377"
       cx="-334.53793"
       id="ellipse583" />
    <flowRoot
       transform="matrix(0.71609622,0,0,0.71609622,222.81198,196.12758)"
       xml:space="preserve"
       id="flowRoot591"
       style="font-style:italic;font-variant:normal;font-weight:normal;font-stretch:normal;font-size:10.58333302px;line-height:1.25;font-family:sans-serif;-inkscape-font-specification:'sans-serif Italic';letter-spacing:0px;word-spacing:0px;fill:#000000;fill-opacity:1;stroke:none;stroke-width:0.26458332"><flowRegion
         style="font-style:italic;font-variant:normal;font-weight:normal;font-stretch:normal;font-family:sans-serif;-inkscape-font-specification:'sans-serif Italic';stroke-width:0.26458332"
         id="flowRegion587"><rect
           style="font-style:italic;font-variant:normal;font-weight:normal;font-stretch:normal;font-family:sans-serif;-inkscape-font-specification:'sans-serif Italic';stroke-width:0.07000434"
           id="rect585"
           width="200.95267"
           height="16.322765"
           x="34.773811"
           y="96.29464" /></flowRegion><flowPara
         id="flowPara589"
         style="font-style:italic;font-variant:normal;font-weight:normal;font-stretch:normal;font-family:sans-serif;-inkscape-font-specification:'sans-serif Italic';text-align:center;text-anchor:middle;stroke-width:0.26458332">biologically-inspired AI</flowPara></flowRoot>    <path
       style="fill:none;stroke:#48658f;stroke-width:1;stroke-linecap:butt;stroke-linejoin:miter;stroke-miterlimit:4;stroke-dasharray:none;stroke-opacity:1;marker-start:url(#Arrow1Mstart);marker-end:url(#Arrow1Mend)"
       d="m 181.74327,201.31751 c 7.94773,10.11878 15.50536,21.01776 26.19242,25.65788"
       id="path593"
       inkscape:connector-curvature="0"
       sodipodi:nodetypes="cc" />
    <path
       sodipodi:nodetypes="cc"
       inkscape:connector-curvature="0"
       id="path6173"
       d="m 223.54748,170.942 c 5.4441,10.0711 13.61696,27.47882 16.24994,43.78279"
       style="fill:none;stroke:#48658f;stroke-width:1;stroke-linecap:butt;stroke-linejoin:miter;stroke-miterlimit:4;stroke-dasharray:none;stroke-opacity:1;marker-start:url(#marker6177);marker-end:url(#marker6205)" />
    <path
       style="fill:none;stroke:#48658f;stroke-width:1;stroke-linecap:butt;stroke-linejoin:miter;stroke-miterlimit:4;stroke-dasharray:none;stroke-opacity:1;marker-start:url(#marker7009);marker-end:url(#marker7049)"
       d="m 222.58445,32.463738 c 38.99691,-6.870158 114.64692,-3.414005 130.61577,0.798829"
       id="path7005"
       inkscape:connector-curvature="0"
       sodipodi:nodetypes="cc" />
    <flowRoot
       style="font-style:italic;font-variant:normal;font-weight:normal;font-stretch:normal;font-size:10.58333302px;line-height:1.25;font-family:sans-serif;-inkscape-font-specification:'sans-serif Italic';letter-spacing:0px;word-spacing:0px;fill:#000000;fill-opacity:1;stroke:none;stroke-width:0.26458332"
       id="flowRoot7795"
       xml:space="preserve"
       transform="matrix(0.60222606,0,0,0.60222606,153.98939,218.84204)"><flowRegion
         id="flowRegion7791"
         style="font-style:italic;font-variant:normal;font-weight:normal;font-stretch:normal;font-family:sans-serif;-inkscape-font-specification:'sans-serif Italic';stroke-width:0.26458332"><rect
           y="96.29464"
           x="34.773811"
           height="26.773239"
           width="79.279251"
           id="rect7789"
           style="font-style:italic;font-variant:normal;font-weight:normal;font-stretch:normal;font-family:sans-serif;-inkscape-font-specification:'sans-serif Italic';stroke-width:0.07000434" /></flowRegion><flowPara
         style="font-style:italic;font-variant:normal;font-weight:normal;font-stretch:normal;font-family:sans-serif;-inkscape-font-specification:'sans-serif Italic';text-align:center;text-anchor:middle;stroke-width:0.26458332"
         id="flowPara7793">model-based</flowPara><flowPara
         style="font-style:italic;font-variant:normal;font-weight:normal;font-stretch:normal;font-family:sans-serif;-inkscape-font-specification:'sans-serif Italic';text-align:center;text-anchor:middle;stroke-width:0.26458332"
         id="flowPara7797">diagnosis</flowPara></flowRoot>    <ellipse
       transform="matrix(-0.9764721,-0.21564374,-0.12715272,0.99188315,0,0)"
       style="fill:#80b3ff;fill-opacity:1;stroke-width:0.13425344"
       ry="12.245084"
       rx="19.140028"
       cy="228.03194"
       cx="-291.83353"
       id="ellipse7799" />
    <flowRoot
       style="font-style:italic;font-variant:normal;font-weight:normal;font-stretch:normal;font-size:10.58333302px;line-height:1.25;font-family:sans-serif;-inkscape-font-specification:'sans-serif Italic';letter-spacing:0px;word-spacing:0px;fill:#000000;fill-opacity:1;stroke:none;stroke-width:0.26458332"
       id="flowRoot7807"
       xml:space="preserve"
       transform="matrix(0.71609622,0,0,0.71609622,158.49818,214.96807)"><flowRegion
         id="flowRegion7803"
         style="font-style:italic;font-variant:normal;font-weight:normal;font-stretch:normal;font-family:sans-serif;-inkscape-font-specification:'sans-serif Italic';stroke-width:0.26458332"><rect
           y="96.29464"
           x="34.773811"
           height="16.322765"
           width="200.95267"
           id="rect7801"
           style="font-style:italic;font-variant:normal;font-weight:normal;font-stretch:normal;font-family:sans-serif;-inkscape-font-specification:'sans-serif Italic';stroke-width:0.07000434" /></flowRegion><flowPara
         style="font-style:italic;font-variant:normal;font-weight:normal;font-stretch:normal;font-family:sans-serif;-inkscape-font-specification:'sans-serif Italic';text-align:center;text-anchor:middle;stroke-width:0.26458332"
         id="flowPara7805">...</flowPara></flowRoot>    <path
       inkscape:connector-curvature="0"
       id="path7809"
       d="m 352.96291,205.60348 10.7369,12.05882 c 0,0 -24.22653,12.17814 -37.56444,19.21705 l 5.20522,5.21379 -25.58691,-4.65134 13.24361,-25.39996 2.88341,9.11269 z"
       style="fill:#80b3ff;fill-opacity:1;stroke:none;stroke-width:0.3605746px;stroke-linecap:butt;stroke-linejoin:miter;stroke-opacity:1"
       sodipodi:nodetypes="cccccccc" />
    <path
       sodipodi:nodetypes="cccssccccccc"
       style="fill:#80b3ff;fill-opacity:1;stroke:none;stroke-width:0.341075px;stroke-linecap:butt;stroke-linejoin:miter;stroke-opacity:1"
       d="m 375.29107,92.288717 17.35135,-18.721203 4.60972,9.500194 5.53273,9.488854 c 0.70722,1.211936 -6.32367,0.599487 -6.44778,2.222995 -0.62968,8.237533 -1.42998,19.095053 -1.87534,26.646173 l 7.02007,-1.62378 -16.84144,17.81312 -14.70136,-22.252 9.1308,2.01768 2.05893,-24.970355 z"
       id="path10127"
       inkscape:connector-curvature="0"
       inkscape:transform-center-x="43.182865"
       inkscape:transform-center-y="-22.692212" />
    <ellipse
       id="ellipse10129"
       cx="424.60968"
       cy="-121.75953"
       rx="51.592506"
       ry="40.504253"
       style="fill:#80b3ff;stroke-width:0.31835881"
       transform="rotate(41.119435)" />
    <flowRoot
       style="font-style:normal;font-weight:normal;font-size:10.58333302px;line-height:1.25;font-family:sans-serif;letter-spacing:0px;word-spacing:0px;fill:#000000;fill-opacity:1;stroke:none;stroke-width:0.26458332"
       id="flowRoot10141"
       xml:space="preserve"
       transform="matrix(0.92485427,0,0,0.92485427,324.52284,99.220126)"><flowRegion
         id="flowRegion10133"
         style="stroke-width:0.26458332"><rect
           y="96.29464"
           x="34.773811"
           height="40.019585"
           width="118.88078"
           id="rect10131"
           style="stroke-width:0.07000434" /></flowRegion><flowPara
         id="flowPara10137"
         style="font-style:normal;font-variant:normal;font-weight:bold;font-stretch:normal;font-family:sans-serif;-inkscape-font-specification:'sans-serif Bold';text-align:center;text-anchor:middle;stroke-width:0.26458332">Model</flowPara><flowPara
         id="flowPara10139"
         style="font-style:normal;font-variant:normal;font-weight:bold;font-stretch:normal;font-family:sans-serif;-inkscape-font-specification:'sans-serif Bold';text-align:center;text-anchor:middle;stroke-width:0.26458332"> Database</flowPara></flowRoot>    <flowRoot
       transform="matrix(0.82503317,0,0,0.82503317,230.76999,3.34176)"
       xml:space="preserve"
       id="flowRoot12966"
       style="font-style:normal;font-weight:normal;font-size:10.58333302px;line-height:1.25;font-family:sans-serif;letter-spacing:0px;word-spacing:0px;fill:#000000;fill-opacity:1;stroke:none;stroke-width:0.26458332"><flowRegion
         style="stroke-width:0.26458332"
         id="flowRegion12962"><rect
           style="stroke-width:0.07000434"
           id="rect12960"
           width="98.651787"
           height="32.505959"
           x="34.773811"
           y="96.29464" /></flowRegion><flowPara
         id="flowPara12964"
         style="text-align:center;text-anchor:middle;stroke-width:0.26458332">cluster</flowPara></flowRoot>  </g>
  <g
     inkscape:groupmode="layer"
     id="layer3"
     inkscape:label="Layer 3"
     transform="translate(-92.571969,-15.144299)"
     style="display:inline">
    <ellipse
       cx="146.26738"
       cy="39.021126"
       rx="27.46917"
       ry="12.876593"
       id="ellipse267"
       style="fill:#e6e6e6;stroke-width:0.10917346"
       transform="rotate(9.0216912)" />
    <flowRoot
       xml:space="preserve"
       id="flowRoot277"
       style="font-style:normal;font-weight:normal;font-size:10.58333302px;line-height:1.25;font-family:sans-serif;letter-spacing:0px;word-spacing:0px;fill:#000000;fill-opacity:1;stroke:none;stroke-width:0.26458332"
       transform="matrix(0.67451764,0,0,0.67451764,92.039641,-11.306582)"><flowRegion
         id="flowRegion271"
         style="stroke-width:0.26458332"><rect
           id="rect269"
           width="66.523804"
           height="27.592272"
           x="34.773811"
           y="96.29464"
           style="stroke-width:0.07000434" /></flowRegion><flowPara
         id="flowPara273"
         style="text-align:center;text-anchor:middle;stroke-width:0.26458332">Conceptual</flowPara><flowPara
         id="flowPara275"
         style="text-align:center;text-anchor:middle;stroke-width:0.26458332">Idea</flowPara></flowRoot>    <ellipse
       transform="rotate(-8.0231432)"
       style="fill:#e6e6e6;stroke-width:0.08800683"
       ry="7.7998023"
       rx="23.939932"
       cy="112.32667"
       cx="130.31961"
       id="ellipse279" />
    <flowRoot
       style="font-style:normal;font-weight:normal;font-size:10.58333302px;line-height:1.25;font-family:sans-serif;letter-spacing:0px;word-spacing:0px;fill:#000000;fill-opacity:1;stroke:none;stroke-width:0.26458332"
       id="flowRoot287"
       xml:space="preserve"
       transform="matrix(0.67451764,0,0,0.67451764,88.79681,24.510177)"><flowRegion
         id="flowRegion283"
         style="stroke-width:0.26458332"><rect
           y="96.29464"
           x="34.773811"
           height="32.505959"
           width="98.651787"
           id="rect281"
           style="stroke-width:0.07000434" /></flowRegion><flowPara
         style="text-align:center;text-anchor:middle;stroke-width:0.26458332"
         id="flowPara285">Algorithm</flowPara></flowRoot>    <ellipse
       id="ellipse289"
       cx="176.37224"
       cy="80.668274"
       rx="30.467196"
       ry="12.258096"
       style="fill:#e6e6e6;stroke-width:0.08800683"
       transform="rotate(-12.358397)" />
    <flowRoot
       transform="matrix(0.67451764,0,0,0.67451764,132.7837,-31.910155)"
       xml:space="preserve"
       id="flowRoot299"
       style="font-style:normal;font-weight:normal;font-size:10.58333302px;line-height:1.25;font-family:sans-serif;letter-spacing:0px;word-spacing:0px;fill:#000000;fill-opacity:1;stroke:none;stroke-width:0.26458332"><flowRegion
         style="stroke-width:0.26458332"
         id="flowRegion293"><rect
           style="stroke-width:0.07000434"
           id="rect291"
           width="98.651787"
           height="32.505959"
           x="34.773811"
           y="96.29464" /></flowRegion><flowPara
         id="flowPara295"
         style="text-align:center;text-anchor:middle;stroke-width:0.26458332">Experimental</flowPara><flowPara
         id="flowPara297"
         style="text-align:center;text-anchor:middle;stroke-width:0.26458332">characterization</flowPara></flowRoot>    <path
       inkscape:connector-curvature="0"
       id="path315"
       d="m 173.06443,84.787993 14.43255,-16.570711 29.39965,19.777946 V 77.838985 l 5.87993,21.381565 -26.19242,6.94901 11.75987,-6.94901 z"
       style="fill:#aa0000;stroke:#aa0000;stroke-width:0.26458332px;stroke-linecap:butt;stroke-linejoin:miter;stroke-opacity:1" />
    <flowRoot
       style="font-style:normal;font-weight:normal;font-size:10.58333302px;line-height:1.25;font-family:sans-serif;letter-spacing:0px;word-spacing:0px;fill:#a02c2c;fill-opacity:1;stroke:none;stroke-width:0.26458332"
       id="flowRoot327"
       xml:space="preserve"
       transform="matrix(0.76599568,0,0,0.76599568,175.25581,-13.822357)"><flowRegion
         id="flowRegion319"
         style="fill:#a02c2c;stroke-width:0.26458332"><rect
           y="96.29464"
           x="34.773811"
           height="32.505959"
           width="98.651787"
           id="rect317"
           style="fill:#a02c2c;stroke-width:0.07000434" /></flowRegion><flowPara
         style="font-style:normal;font-variant:normal;font-weight:bold;font-stretch:normal;font-family:sans-serif;-inkscape-font-specification:'sans-serif Bold';text-align:center;text-anchor:middle;fill:#a02c2c;stroke-width:0.26458332"
         id="flowPara321">Model</flowPara><flowPara
         id="flowPara323"
         style="font-style:normal;font-variant:normal;font-weight:bold;font-stretch:normal;font-family:sans-serif;-inkscape-font-specification:'sans-serif Bold';text-align:center;text-anchor:middle;fill:#a02c2c;stroke-width:0.26458332">Building </flowPara><flowPara
         style="font-style:normal;font-variant:normal;font-weight:bold;font-stretch:normal;font-family:sans-serif;-inkscape-font-specification:'sans-serif Bold';text-align:center;text-anchor:middle;fill:#a02c2c;stroke-width:0.26458332"
         id="flowPara325" /></flowRoot>    <path
       style="fill:#aa0000;stroke:#aa0000;stroke-width:0.26458332px;stroke-linecap:butt;stroke-linejoin:miter;stroke-opacity:1"
       d="m 287.59948,140.38272 14.43258,-16.57072 29.39967,19.77795 V 133.4337 l 5.87994,21.38158 -26.19245,6.94901 11.75988,-6.94901 z"
       id="path329"
       inkscape:connector-curvature="0" />
    <flowRoot
       transform="matrix(0.76599568,0,0,0.76599568,224.90344,80.974655)"
       xml:space="preserve"
       id="flowRoot341"
       style="font-style:normal;font-weight:normal;font-size:10.58333302px;line-height:1.25;font-family:sans-serif;letter-spacing:0px;word-spacing:0px;fill:#a02c2c;fill-opacity:1;stroke:none;stroke-width:0.26458332"><flowRegion
         style="fill:#a02c2c;stroke-width:0.26458332"
         id="flowRegion333"><rect
           style="fill:#a02c2c;stroke-width:0.07000434"
           id="rect331"
           width="98.651787"
           height="32.505959"
           x="34.773811"
           y="96.29464" /></flowRegion><flowPara
         id="flowPara335"
         style="font-style:normal;font-variant:normal;font-weight:bold;font-stretch:normal;font-family:sans-serif;-inkscape-font-specification:'sans-serif Bold';text-align:center;text-anchor:middle;fill:#a02c2c;stroke-width:0.26458332">Model</flowPara><flowPara
         style="font-style:normal;font-variant:normal;font-weight:bold;font-stretch:normal;font-family:sans-serif;-inkscape-font-specification:'sans-serif Bold';text-align:center;text-anchor:middle;fill:#a02c2c;stroke-width:0.26458332"
         id="flowPara337">Sharing </flowPara><flowPara
         id="flowPara339"
         style="font-style:normal;font-variant:normal;font-weight:bold;font-stretch:normal;font-family:sans-serif;-inkscape-font-specification:'sans-serif Bold';text-align:center;text-anchor:middle;fill:#a02c2c;stroke-width:0.26458332" /></flowRoot>    <flowRoot
       style="font-style:normal;font-weight:normal;font-size:10.58333302px;line-height:1.25;font-family:sans-serif;letter-spacing:0px;word-spacing:0px;fill:#a02c2c;fill-opacity:1;stroke:none;stroke-width:0.26458332"
       id="flowRoot355"
       xml:space="preserve"
       transform="matrix(0.76599568,0,0,0.76599568,281.78293,37.990322)"><flowRegion
         id="flowRegion347"
         style="fill:#a02c2c;stroke-width:0.26458332"><rect
           y="96.29464"
           x="34.773811"
           height="32.505959"
           width="98.651787"
           id="rect345"
           style="fill:#a02c2c;stroke-width:0.07000434" /></flowRegion><flowPara
         style="font-style:normal;font-variant:normal;font-weight:bold;font-stretch:normal;font-family:sans-serif;-inkscape-font-specification:'sans-serif Bold';text-align:center;text-anchor:middle;fill:#a02c2c;stroke-width:0.26458332"
         id="flowPara349">Model</flowPara><flowPara
         id="flowPara351"
         style="font-style:normal;font-variant:normal;font-weight:bold;font-stretch:normal;font-family:sans-serif;-inkscape-font-specification:'sans-serif Bold';text-align:center;text-anchor:middle;fill:#a02c2c;stroke-width:0.26458332">Validation </flowPara><flowPara
         style="font-style:normal;font-variant:normal;font-weight:bold;font-stretch:normal;font-family:sans-serif;-inkscape-font-specification:'sans-serif Bold';text-align:center;text-anchor:middle;fill:#a02c2c;stroke-width:0.26458332"
         id="flowPara353" /></flowRoot>    <ellipse
       transform="rotate(7.7518425)"
       style="display:inline;fill:#b3b3b3;stroke-width:0.23505661"
       ry="21.296425"
       rx="38.092743"
       cy="115.8026"
       cx="396.39569"
       id="ellipse10145" />
    <flowRoot
       style="font-style:normal;font-weight:normal;font-size:10.58333302px;line-height:1.25;font-family:sans-serif;letter-spacing:0px;word-spacing:0px;display:inline;fill:#000000;fill-opacity:1;stroke:none;stroke-width:0.26458332"
       id="flowRoot10157"
       xml:space="preserve"
       transform="matrix(0.92485427,0,0,0.92485427,297.6961,67.659284)"><flowRegion
         id="flowRegion10149"
         style="stroke-width:0.26458332"><rect
           y="96.29464"
           x="34.773811"
           height="32.505959"
           width="98.651787"
           id="rect10147"
           style="stroke-width:0.07000434" /></flowRegion><flowPara
         style="text-align:center;text-anchor:middle;stroke-width:0.26458332"
         id="flowPara10151">Released</flowPara><flowPara
         id="flowPara10153"
         style="text-align:center;text-anchor:middle;stroke-width:0.26458332">Model </flowPara><flowPara
         style="text-align:center;text-anchor:middle;stroke-width:0.26458332"
         id="flowPara10155" /></flowRoot>  </g>
  <g
     inkscape:groupmode="layer"
     id="layer5"
     inkscape:label="Layer 5"
     transform="translate(18.562721)"
     style="display:inline">
    <rect
       y="89.437752"
       x="22.479216"
       height="27.285303"
       width="82.812645"
       id="rect1071"
       style="display:inline;fill:#447821;stroke:none;stroke-width:0.3152619" />
    <flowRoot
       transform="matrix(0.81367559,0,0,0.81367559,-4.3487454,15.271614)"
       xml:space="preserve"
       id="flowRoot1081"
       style="font-style:normal;font-weight:normal;font-size:10.58333302px;line-height:1.25;font-family:sans-serif;letter-spacing:0px;word-spacing:0px;display:inline;fill:#ffffff;fill-opacity:1;stroke:none;stroke-width:0.26458332"><flowRegion
         style="fill:#ffffff;stroke-width:0.26458332"
         id="flowRegion1075"><rect
           style="fill:#ffffff;stroke-width:0.07000434"
           id="rect1073"
           width="98.651787"
           height="32.505959"
           x="34.773811"
           y="96.29464" /></flowRegion><flowPara
         id="flowPara1077"
         style="font-style:normal;font-variant:normal;font-weight:bold;font-stretch:normal;font-family:sans-serif;-inkscape-font-specification:'sans-serif Bold';text-align:center;text-anchor:middle;fill:#ffffff;stroke-width:0.26458332">model</flowPara><flowPara
         id="flowPara1079"
         style="font-style:normal;font-variant:normal;font-weight:bold;font-stretch:normal;font-family:sans-serif;-inkscape-font-specification:'sans-serif Bold';text-align:center;text-anchor:middle;fill:#ffffff;stroke-width:0.26458332">standardization</flowPara></flowRoot>  </g>
  <g
     inkscape:groupmode="layer"
     id="layer4"
     inkscape:label="Layer 7"
     style="display:inline">
    <rect
       style="display:inline;fill:#447821;stroke:none;stroke-width:0.3152619"
       id="rect1093"
       width="34.436859"
       height="15.792719"
       x="83.138298"
       y="49.088474" />
    <flowRoot
       style="font-style:normal;font-weight:normal;font-size:10.58333302px;line-height:1.25;font-family:sans-serif;letter-spacing:0px;word-spacing:0px;display:inline;fill:#ffffff;fill-opacity:1;stroke:none;stroke-width:0.26458332"
       id="flowRoot1103"
       xml:space="preserve"
       transform="matrix(0.81367559,0,0,0.81367559,32.261448,-26.141371)"><flowRegion
         id="flowRegion1097"
         style="fill:#ffffff;stroke-width:0.26458332"><rect
           y="96.29464"
           x="34.773811"
           height="32.505959"
           width="98.651787"
           id="rect1095"
           style="fill:#ffffff;stroke-width:0.07000434" /></flowRegion><flowPara
         style="font-style:normal;font-variant:normal;font-weight:bold;font-stretch:normal;font-family:sans-serif;-inkscape-font-specification:'sans-serif Bold';text-align:center;text-anchor:middle;fill:#ffffff;stroke-width:0.26458332"
         id="flowPara1101">pyNN</flowPara></flowRoot>    <rect
       y="68.467522"
       x="132.35069"
       height="14.405354"
       width="33.849545"
       id="rect1113"
       style="display:inline;fill:#447821;stroke:none;stroke-width:0.28756669" />
    <flowRoot
       transform="matrix(0.74219556,0,0,0.74219556,86.426093,-0.15351513)"
       xml:space="preserve"
       id="flowRoot1121"
       style="font-style:normal;font-weight:normal;font-size:10.58333302px;line-height:1.25;font-family:sans-serif;letter-spacing:0px;word-spacing:0px;display:inline;fill:#ffffff;fill-opacity:1;stroke:none;stroke-width:0.26458332"><flowRegion
         style="fill:#ffffff;stroke-width:0.26458332"
         id="flowRegion1117"><rect
           style="fill:#ffffff;stroke-width:0.07000434"
           id="rect1115"
           width="98.651787"
           height="32.505959"
           x="34.773811"
           y="96.29464" /></flowRegion><flowPara
         id="flowPara1119"
         style="font-style:normal;font-variant:normal;font-weight:bold;font-stretch:normal;font-family:sans-serif;-inkscape-font-specification:'sans-serif Bold';text-align:center;text-anchor:middle;fill:#ffffff;stroke-width:0.26458332">SciUnit</flowPara></flowRoot>    <rect
       style="display:inline;fill:#447821;stroke:none;stroke-width:0.24941532"
       id="rect1123"
       width="29.358738"
       height="12.494202"
       x="94.898155"
       y="34.723389" />
    <flowRoot
       style="font-style:normal;font-weight:normal;font-size:10.58333302px;line-height:1.25;font-family:sans-serif;letter-spacing:0px;word-spacing:0px;display:inline;fill:#ffffff;fill-opacity:1;stroke:none;stroke-width:0.26458332"
       id="flowRoot1131"
       xml:space="preserve"
       transform="matrix(0.64372879,0,0,0.64372879,55.06635,-24.793717)"><flowRegion
         id="flowRegion1127"
         style="fill:#ffffff;stroke-width:0.26458332"><rect
           y="96.29464"
           x="34.773811"
           height="32.505959"
           width="98.651787"
           id="rect1125"
           style="fill:#ffffff;stroke-width:0.07000434" /></flowRegion><flowPara
         style="font-style:normal;font-variant:normal;font-weight:bold;font-stretch:normal;font-family:sans-serif;-inkscape-font-specification:'sans-serif Bold';text-align:center;text-anchor:middle;fill:#ffffff;stroke-width:0.26458332"
         id="flowPara1129">Sonata</flowPara></flowRoot>    <rect
       y="171.23065"
       x="126.16869"
       height="15.792719"
       width="34.436859"
       id="rect1133"
       style="display:inline;fill:#447821;stroke:none;stroke-width:0.3152619" />
    <flowRoot
       transform="matrix(0.81367559,0,0,0.81367559,75.291842,96.000802)"
       xml:space="preserve"
       id="flowRoot1141"
       style="font-style:normal;font-weight:normal;font-size:10.58333302px;line-height:1.25;font-family:sans-serif;letter-spacing:0px;word-spacing:0px;display:inline;fill:#ffffff;fill-opacity:1;stroke:none;stroke-width:0.26458332"><flowRegion
         style="fill:#ffffff;stroke-width:0.26458332"
         id="flowRegion1137"><rect
           style="fill:#ffffff;stroke-width:0.07000434"
           id="rect1135"
           width="98.651787"
           height="32.505959"
           x="34.773811"
           y="96.29464" /></flowRegion><flowPara
         id="flowPara1139"
         style="font-style:normal;font-variant:normal;font-weight:bold;font-stretch:normal;font-family:sans-serif;-inkscape-font-specification:'sans-serif Bold';text-align:center;text-anchor:middle;fill:#ffffff;stroke-width:0.26458332">pyNN</flowPara></flowRoot>    <rect
       style="display:inline;fill:#447821;stroke:none;stroke-width:0.3152619"
       id="rect1143"
       width="34.436859"
       height="15.792719"
       x="78.014557"
       y="191.8681" />
    <flowRoot
       style="font-style:normal;font-weight:normal;font-size:10.58333302px;line-height:1.25;font-family:sans-serif;letter-spacing:0px;word-spacing:0px;display:inline;fill:#ffffff;fill-opacity:1;stroke:none;stroke-width:0.26458332"
       id="flowRoot1151"
       xml:space="preserve"
       transform="matrix(0.81367559,0,0,0.81367559,27.137675,116.63834)"><flowRegion
         id="flowRegion1147"
         style="fill:#ffffff;stroke-width:0.26458332"><rect
           y="96.29464"
           x="34.773811"
           height="32.505959"
           width="98.651787"
           id="rect1145"
           style="fill:#ffffff;stroke-width:0.07000434" /></flowRegion><flowPara
         style="font-style:normal;font-variant:normal;font-weight:bold;font-stretch:normal;font-family:sans-serif;-inkscape-font-specification:'sans-serif Bold';text-align:center;text-anchor:middle;fill:#ffffff;stroke-width:0.26458332"
         id="flowPara1149">pyNN</flowPara></flowRoot>    <rect
       style="display:inline;fill:#447821;stroke:none;stroke-width:0.24056681"
       id="rect1153"
       width="28.317177"
       height="12.050943"
       x="296.18692"
       y="70.966972" />
    <flowRoot
       style="font-style:normal;font-weight:normal;font-size:10.58333302px;line-height:1.25;font-family:sans-serif;letter-spacing:0px;word-spacing:0px;display:inline;fill:#ffffff;fill-opacity:1;stroke:none;stroke-width:0.26458332"
       id="flowRoot1161"
       xml:space="preserve"
       transform="matrix(0.62089118,0,0,0.62089118,257.76823,13.561362)"><flowRegion
         id="flowRegion1157"
         style="fill:#ffffff;stroke-width:0.26458332"><rect
           y="96.29464"
           x="34.773811"
           height="32.505959"
           width="98.651787"
           id="rect1155"
           style="fill:#ffffff;stroke-width:0.07000434" /></flowRegion><flowPara
         style="font-style:normal;font-variant:normal;font-weight:bold;font-stretch:normal;font-family:sans-serif;-inkscape-font-specification:'sans-serif Bold';text-align:center;text-anchor:middle;fill:#ffffff;stroke-width:0.26458332"
         id="flowPara1159">SciUnit</flowPara></flowRoot>    <rect
       y="85.285492"
       x="274.36737"
       height="12.019907"
       width="99.034416"
       id="rect1173"
       style="display:inline;fill:#447821;stroke:none;stroke-width:0.44930765" />
    <flowRoot
       transform="matrix(0.61929206,0,0,0.61929206,249.02983,28.027742)"
       xml:space="preserve"
       id="flowRoot1181"
       style="font-style:normal;font-weight:normal;font-size:10.58333302px;line-height:1.25;font-family:sans-serif;letter-spacing:0px;word-spacing:0px;display:inline;fill:#ffffff;fill-opacity:1;stroke:none;stroke-width:0.26458332"><flowRegion
         style="fill:#ffffff;stroke-width:0.26458332"
         id="flowRegion1177"><rect
           style="fill:#ffffff;stroke-width:0.07000434"
           id="rect1175"
           width="171.90869"
           height="15.57125"
           x="34.773811"
           y="96.29464" /></flowRegion><flowPara
         id="flowPara1179"
         style="font-style:normal;font-variant:normal;font-weight:bold;font-stretch:normal;font-family:sans-serif;-inkscape-font-specification:'sans-serif Bold';text-align:center;text-anchor:middle;fill:#ffffff;stroke-width:0.26458332">HBP Validation Framework</flowPara></flowRoot>    <rect
       style="display:inline;fill:#447821;stroke:none;stroke-width:0.38655195"
       id="rect1183"
       width="67.49662"
       height="13.053694"
       x="303.91202"
       y="154.16351" />
    <flowRoot
       style="font-style:normal;font-weight:normal;font-size:10.58333302px;line-height:1.25;font-family:sans-serif;letter-spacing:0px;word-spacing:0px;display:inline;fill:#ffffff;fill-opacity:1;stroke:none;stroke-width:0.26458332"
       id="flowRoot1191"
       xml:space="preserve"
       transform="matrix(0.67255501,0,0,0.67255501,256.65788,91.981235)"><flowRegion
         id="flowRegion1187"
         style="fill:#ffffff;stroke-width:0.26458332"><rect
           y="96.29464"
           x="34.773811"
           height="15.57125"
           width="171.90869"
           id="rect1185"
           style="fill:#ffffff;stroke-width:0.07000434" /></flowRegion><flowPara
         style="font-style:normal;font-variant:normal;font-weight:bold;font-stretch:normal;font-family:sans-serif;-inkscape-font-specification:'sans-serif Bold';text-align:center;text-anchor:middle;fill:#ffffff;stroke-width:0.26458332"
         id="flowPara1189">Model Catalog</flowPara></flowRoot>    <rect
       y="212.81477"
       x="271.83969"
       height="12.019907"
       width="74.980164"
       id="rect1193"
       style="display:inline;fill:#447821;stroke:none;stroke-width:0.39095244" />
    <flowRoot
       transform="matrix(0.61929206,0,0,0.61929206,234.7423,155.55692)"
       xml:space="preserve"
       id="flowRoot1201"
       style="font-style:normal;font-weight:normal;font-size:10.58333302px;line-height:1.25;font-family:sans-serif;letter-spacing:0px;word-spacing:0px;display:inline;fill:#ffffff;fill-opacity:1;stroke:none;stroke-width:0.26458332"><flowRegion
         style="fill:#ffffff;stroke-width:0.26458332"
         id="flowRegion1197"><rect
           style="fill:#ffffff;stroke-width:0.07000434"
           id="rect1195"
           width="171.90869"
           height="15.57125"
           x="34.773811"
           y="96.29464" /></flowRegion><flowPara
         id="flowPara1199"
         style="font-style:normal;font-variant:normal;font-weight:bold;font-stretch:normal;font-family:sans-serif;-inkscape-font-specification:'sans-serif Bold';text-align:center;text-anchor:middle;fill:#ffffff;stroke-width:0.26458332">Knowledge Graph</flowPara></flowRoot>    <rect
       style="display:inline;fill:#447821;stroke:none;stroke-width:0.34820166"
       id="rect1203"
       width="59.478531"
       height="12.019907"
       x="271.83969"
       y="199.0564" />
    <flowRoot
       style="font-style:normal;font-weight:normal;font-size:10.58333302px;line-height:1.25;font-family:sans-serif;letter-spacing:0px;word-spacing:0px;display:inline;fill:#ffffff;fill-opacity:1;stroke:none;stroke-width:0.26458332"
       id="flowRoot1211"
       xml:space="preserve"
       transform="matrix(0.61929206,0,0,0.61929206,227.86309,141.79859)"><flowRegion
         id="flowRegion1207"
         style="fill:#ffffff;stroke-width:0.26458332"><rect
           y="96.29464"
           x="34.773811"
           height="15.57125"
           width="171.90869"
           id="rect1205"
           style="fill:#ffffff;stroke-width:0.07000434" /></flowRegion><flowPara
         style="font-style:normal;font-variant:normal;font-weight:bold;font-stretch:normal;font-family:sans-serif;-inkscape-font-specification:'sans-serif Bold';text-align:center;text-anchor:middle;fill:#ffffff;stroke-width:0.26458332"
         id="flowPara1209">Live Papers</flowPara></flowRoot>  </g>
  <g
     inkscape:groupmode="layer"
     id="layer6"
     inkscape:label="Layer 6"
     style="display:none">
    <g
       style="display:inline"
       id="g1203"
       transform="matrix(0.48436109,0,0,0.48436109,23.119639,75.736371)">
      <path
         inkscape:connector-curvature="0"
         id="path1194"
         d="m -5.8875073,151.52494 c -8.0401997,-0.81397 -16.5568797,-4.35806 -23.1257497,-9.62346 -2.59407,-2.07932 -6.53632,-6.29505 -8.549,-9.14204 -2.15618,-3.04999 -5.03851,-8.51087 -4.9218,-9.32488 0.0512,-0.35721 0.3641,-0.68427 0.801,-0.83728 1.19789,-0.41953 1.93748,0.14014 3.0151,2.28163 4.91311,9.76345 17.34594,19.53436 24.83764,19.51978 1.43603,-0.003 3.65588,-0.88129 4.4115297,-1.74585 1.68394,-1.92663 2.32598,-5.30988 1.8799,-9.90619 -0.23299,-2.40065 -0.4391,-3.26057 -1.10646,-4.61616 -1.5386697,-3.12549 -5.3386997,-5.89449 -10.3165797,-7.51749 -1.97176,-0.64288 -2.4037,-0.68102 -2.4037,-0.21226 0,0.18762 1.02933,2.18192 2.28741,4.43177 1.25807,2.24985 2.64566,4.86454 3.08353,5.81042 0.55695,1.20311 1.32721,2.23649 2.5638,3.43959 0.97221,0.94588 1.89647,2.0962 2.0539,2.55625 0.59869,1.7495 -1.01792,3.3599 -4.05519,4.03961 -1.6655,0.37272 -2.77279,0.20462 -3.4291,-0.5206 -0.55266,-0.61068 -0.43415,-1.89238 0.4117,-4.45267 l 0.55658,-1.68471 -0.69079,-2.15175 c -1.51292,-4.71268 -6.09136,-12.98018 -7.33558,-13.2462 -0.3331,-0.0712 -2.86186,-0.68172 -5.61947,-1.35666 -7.50107,-1.83594 -10.76061,-3.08024 -13.57315,-5.18143 -1.10705,-0.82706 -1.38906,-1.19058 -1.38906,-1.79053 0,-0.41403 0.18431,-0.90575 0.40958,-1.09271 0.46594,-0.38669 0.80548,-0.24175 3.95605,1.68877 1.01864,0.62418 2.74505,1.5012 3.83645,1.94893 3.21161,1.31752 9.26426,2.56505 9.62363,1.98357 0.3187,-0.51567 -2.8093,-3.14628 -7.14943,-6.0126 -6.94639,-4.58754 -9.06763,-6.87051 -10.7185,-11.535672 -1.51958,-4.294138 -1.57948,-8.558782 -0.19746,-14.057245 3.14541,-12.514187 12.82179,-24.300542 24.81231,-30.222719 7.06788,-3.490861 13.1707797,-4.901243 21.20829937,-4.901243 3.87254973,0 4.26949973,0.04418 4.75448973,0.529166 0.6786599,0.678662 0.6664199,0.854612 -0.12484,1.79498 l -0.65401,0.777248 -4.4392197,0.148713 c -3.7761797,0.126502 -4.8998997,0.268323 -7.5235597,0.949525 -10.0637297,2.612923 -18.8433897,8.056103 -21.1306197,13.100474 -0.99141,2.186517 -1.01811,3.565814 -0.10451,5.399167 1.14796,2.303658 3.69639,4.203317 7.89316,5.883734 2.68056,1.073314 5.48673,1.160536 7.95964,0.247401 2.18777,-0.807844 5.5984197,-3.114128 7.7369697,-5.23175 l 1.7880297,-1.770531 -7.7627294,-0.07018 c -7.65381,-0.0692 -7.79229,-0.06084 -9.86939,0.595313 -3.91391,1.236405 -4.99161,0.794171 -4.98717,-2.046487 0.002,-1.187564 0.18211,-2.039225 0.63954,-3.021668 1.14263,-2.4541 2.06986,-2.420209 4.46153,0.163073 0.82839,0.894757 1.89905,1.790992 2.37925,1.991632 1.07455,0.448978 7.67173,0.933109 12.7153297,0.933109 4.3985297,0 3.3720997,0.612292 8.7095994,-5.195481 5.7122697,-6.215565 9.2500799,-9.111989 12.3065889,-10.075467 1.377481,-0.434213 1.408581,-0.431978 1.983101,0.142543 0.803759,0.80376 0.482009,1.220502 -2.080181,2.694279 -1.15022,0.661608 -2.68063,1.608904 -3.400929,2.105102 -3.3698802,2.321446 -8.9461699,9.047006 -7.9590599,9.59942 0.22514,0.125992 0.50642,0.169076 0.62508,0.09574 0.11865,-0.07333 1.04045,-0.308204 2.0484199,-0.521933 1.0079797,-0.213729 3.3209698,-1.093088 5.13998,-1.95413 7.087949,-3.355136 10.064409,-4.158722 15.345829,-4.143086 3.99222,0.01182 4.87945,0.188568 8.20209,1.63397 7.914761,3.443049 14.916761,13.434563 17.700831,25.258217 1.587951,6.743862 1.635601,14.839856 0.12578,21.371246 -1.16227,5.02786 -3.07287,9.93258 -5.5308,14.19813 -1.48126,2.5706 -3.45436,5.38375 -3.77134,5.377 -0.69359,-0.0148 -1.4633,-1.33838 -1.17862,-2.02676 0.10979,-0.26551 0.78979,-1.3757 1.5111,-2.46711 5.03376,-7.61652 7.71317,-21.55206 5.68082,-29.545791 -0.64297,-2.528943 -1.28988,-3.727773 -2.72587,-5.05142 -1.4504,-1.336926 -1.92525,-1.470893 -4.72905,-1.334177 -2.43675,0.118819 -3.59279,0.561644 -6.620821,2.536132 -5.65359,3.686532 -7.2459,8.19055 -5.72626,16.197326 0.29,1.52797 0.55128,3.03105 0.58064,3.34017 0.0518,0.54535 0.0741,0.54142 0.75147,-0.13229 1.776331,-1.76676 6.986181,-11.533121 7.662201,-14.363528 0.96014,-4.019961 1.71881,-4.693156 4.02015,-3.567213 1.74846,0.855443 4.15602,3.101607 4.15602,3.877421 0,1.383615 -1.04138,2.127134 -4.37871,3.126285 -1.68166,0.503465 -1.91185,0.656275 -2.33951,1.553085 -0.26088,0.54708 -2.13121,3.63436 -4.156291,6.86063 -3.294799,5.24913 -4.64388,7.77595 -4.32295,8.09688 0.10742,0.10742 1.348741,4.30501 2.09477,7.08357 0.98611,3.67277 1.29601,5.80893 1.30507,8.99584 0.0104,3.64678 -0.25484,4.58965 -1.25101,4.44783 -0.562859,-0.0801 -0.575079,-0.16221 -0.484659,-3.2572 0.131909,-4.51575 -0.55305,-8.18812 -2.521391,-13.5182 -0.48385,-1.31023 -0.50898,-1.3321 -0.91182,-0.79375 -0.68508,0.91554 -1.24597,3.04623 -1.53873,5.84528 -0.944319,9.02853 -1.61947,12.35011 -3.11926,15.34584 -2.45841,4.91054 -7.956519,8.55772 -15.7313892,10.43542 -4.0709398,0.98317 -9.5061794,1.2817 -14.3701691,0.78929 z M 29.942301,117.41376 c 0.29703,-0.6237 0.29152,-0.63214 -0.0965,-0.14787 -0.22631,0.28248 -0.41147,0.62974 -0.41147,0.7717 0,0.33617 0.12221,0.18607 0.50793,-0.62383 z m -5.58241,-1.07642 c 0.89354,-0.4465 1.875681,-1.16443 2.182551,-1.59537 0.30686,-0.43095 0.44284,-0.75024 0.30218,-0.70953 -0.14066,0.0407 -0.82075,-0.69988 -1.511301,-1.64577 -2.03469,-2.787 -6.83746,-7.35357 -9.789569,-9.30812 -3.809251,-2.52204 -6.6040802,-3.958016 -6.9772202,-3.584874 -0.52173,0.521724 -0.36823,5.173904 0.21294,6.453904 1.3156102,2.89753 8.8955092,9.6741 12.0983002,10.81611 1.434139,0.51136 1.661239,0.48355 3.482119,-0.42635 z m -42.021348,-2.26946 c 3.56856,-0.82227 6.65898,-1.94691 9.7009897,-3.53031 3.03161,-1.57799 6.1740097,-3.6707 6.1740097,-4.11165 0,-0.38337 -2.02618,-1.7291 -3.5380397,-2.34985 -1.50181,-0.61663 -4.05094,-0.5267 -6.7741897,0.23897 -6.62038,1.8614 -10.75657,3.96454 -11.55497,5.87538 -0.42336,1.01324 -0.47317,3.60299 -0.0833,4.33146 0.23992,0.4483 0.4649,0.49233 1.78594,0.34953 0.83129,-0.0899 2.76159,-0.45146 4.28956,-0.80353 z m 46.302078,-1.8135 c 0.34178,-0.3638 0.56188,-0.66146 0.48912,-0.66146 -0.0728,0 -0.41193,0.29766 -0.7537,0.66146 -0.34178,0.3638 -0.56188,0.66146 -0.48912,0.66146 0.0728,0 0.41193,-0.29766 0.7537,-0.66146 z M 2.2145421,102.92781 c 1.45367,-1.51866 3.0134299,-3.694251 3.2034099,-4.468171 0.12754,-0.51961 -0.0385,-0.600787 -2.0433699,-0.998947 -1.2002,-0.238358 -2.95842973,-0.505865 -3.90716973,-0.594461 l -1.72498997,-0.161081 0.20519,1.027737 c 0.38232,1.91498 2.39297997,6.451693 2.85936967,6.451693 0.11252,0 0.74592003,-0.56554 1.40756003,-1.25677 z m 6.7575597,-4.89479 c -0.0734,-0.181901 -0.13345,-0.03307 -0.13345,0.330729 0,0.363802 0.0601,0.51263 0.13345,0.330729 0.0734,-0.181901 0.0734,-0.479557 0,-0.661458 z m 0.7992599,-2.629297 c -0.0845,-0.211066 -0.14716,-0.148373 -0.15985,0.159853 -0.0115,0.278913 0.051,0.435184 0.13896,0.347266 0.0879,-0.08792 0.0973,-0.316125 0.0209,-0.507119 z M 1.2680821,92.470226 C 3.4294121,90.914693 4.377252,88.792166 6.1389417,81.562706 6.6268118,79.560612 6.8046018,75.33298 6.4465418,74.248064 5.9916317,72.869676 4.598122,71.683745 2.5671321,70.946534 1.1463321,70.430812 0.72695207,70.36637 0.55420237,70.63723 c -1.16562,1.827603 -2.95669997,7.900132 -3.63359997,12.319449 -0.38356,2.504171 -0.37724,7.885907 0.0118,9.996965 l 0.3063,1.662364 1.35918,-0.601091 c 0.74754997,-0.330602 1.94915997,-1.025713 2.6702597,-1.544691 z m 6.4623497,0.998731 c 0,-0.145521 -0.11541,-0.08599 -0.25648,0.132292 -0.14106,0.218281 -0.25648,0.515937 -0.25648,0.661458 0,0.145521 0.11542,0.08599 0.25648,-0.132292 0.14107,-0.218281 0.25648,-0.515937 0.25648,-0.661458 z m 0.9826,-3.092318 c -0.0845,-0.211066 -0.14716,-0.148373 -0.15985,0.159853 -0.0115,0.278914 0.051,0.435184 0.13896,0.347266 0.0879,-0.08792 0.0973,-0.316124 0.0209,-0.507119 z m 0.78824,-2.926953 c -0.0734,-0.181901 -0.13346,-0.03307 -0.13346,0.330729 0,0.363802 0.0601,0.51263 0.13346,0.330729 0.0734,-0.181901 0.0734,-0.479557 0,-0.661458 z m 3.2416992,-0.198438 c -0.01,-0.261689 -0.092,-0.216625 -0.24193,0.132292 -0.31256,0.727363 -0.31256,1.145109 0,0.661458 0.14106,-0.218281 0.24993,-0.575469 0.24193,-0.79375 z m 0.79375,-2.38125 c -0.01,-0.261689 -0.092,-0.216625 -0.24193,0.132292 -0.31256,0.727363 -0.31256,1.145109 0,0.661458 0.14106,-0.218281 0.24993,-0.575469 0.24193,-0.79375 z m -3.500779,-0.04961 c -0.0845,-0.211066 -0.1471503,-0.148373 -0.1598503,0.159853 -0.0115,0.278913 0.0511,0.435184 0.1389703,0.347266 0.0879,-0.08792 0.0973,-0.316125 0.0209,-0.507119 z m 0.26459,-2.116667 c -0.0845,-0.211066 -0.14716,-0.148373 -0.15985,0.159853 -0.0115,0.278913 0.051,0.435184 0.13896,0.347266 0.0879,-0.08792 0.0973,-0.316124 0.0209,-0.507119 z m 3.845679,-1.586056 c -0.16567,-0.165666 -0.20255,0.0083 -0.10411,0.491125 0.11291,0.553763 0.17944,0.620295 0.25655,0.25654 0.0573,-0.270118 -0.0113,-0.606568 -0.15244,-0.747665 z m -1.57399,-1.183719 c -0.17913,-0.07247 -0.53632,-0.07688 -0.79375,-0.0098 -0.25743,0.06708 -0.11087,0.126381 0.32569,0.131773 0.43656,0.0054 0.64719,-0.04949 0.46806,-0.12197 z"
         style="fill:#33a9c5;stroke-width:0.26458335" />
      <path
         inkscape:connector-curvature="0"
         id="path1196"
         d="m -5.8875073,151.52494 c -8.0401997,-0.81397 -16.5568797,-4.35806 -23.1257497,-9.62346 -2.59407,-2.07932 -6.53632,-6.29505 -8.549,-9.14204 -2.15618,-3.04999 -5.03851,-8.51087 -4.9218,-9.32488 0.0512,-0.35721 0.3641,-0.68427 0.801,-0.83728 1.19789,-0.41953 1.93748,0.14014 3.0151,2.28163 4.91311,9.76345 17.34594,19.53436 24.83764,19.51978 1.43603,-0.003 3.65588,-0.88129 4.4115297,-1.74585 1.68394,-1.92663 2.32598,-5.30988 1.8799,-9.90619 -0.23299,-2.40065 -0.4391,-3.26057 -1.10646,-4.61616 -1.7962497,-3.64871 -5.8416597,-6.27093 -12.6541397,-8.20236 -0.83433,-0.23655 -0.77986,0.40468 0.177,2.08363 1.88254,3.3032 2.79194,4.99485 4.25351,7.91235 1.31803,2.63099 1.78278,3.29763 2.97735,4.27072 0.84006,0.68431 1.61977,1.60601 1.91792,2.26718 0.45017,0.99831 0.46237,1.18539 0.11742,1.79997 -0.54943,0.97888 -2.55946,1.92573 -4.45241,2.09738 -2.62232,0.23779 -2.84599,-0.27725 -1.83096,-4.21606 l 0.59395,-2.30484 -0.73022,-2.24225 c -0.85317,-2.61978 -3.10995,-7.32407 -4.97662,-10.37383 -1.514,-2.47356 -0.8045,-2.13448 -8.28629,-3.96024 -7.48991,-1.82775 -10.75745,-3.07423 -13.57315,-5.17778 -1.10705,-0.82706 -1.38906,-1.19058 -1.38906,-1.79053 0,-0.41403 0.18431,-0.90575 0.40958,-1.09271 0.46594,-0.38669 0.80548,-0.24175 3.95605,1.68877 3.47172,2.1273 8.01743,3.62335 12.23698,4.02734 1.4465,0.13848 1.91822,0.10315 1.91822,-0.14367 0,-0.71994 -3.2724,-3.42264 -7.66481,-6.33043 -6.94781,-4.59948 -9.08189,-6.95014 -10.77367,-11.867028 -0.64117,-1.863466 -0.70633,-2.419813 -0.72035,-6.149854 -0.0139,-3.690678 0.0603,-4.390586 0.74147,-6.994649 4.40418,-16.83773 18.81739,-30.524428 35.78503,-33.981257 4.1531097,-0.846114 7.3946094,-1.161632 10.86410937,-1.057479 3.67599973,0.110352 4.16409963,0.318581 3.50514973,1.495338 -0.39988,0.714111 -0.4235,0.719183 -4.09715973,0.879867 -5.70132967,0.249372 -9.45371967,1.074537 -14.98900937,3.296142 -7.21821,2.89705 -12.96536,7.119367 -14.78694,10.863661 -0.81749,1.680388 -0.98984,4.317322 -0.37667,5.763229 0.73851,1.741463 3.14191,3.88251 5.91522,5.269532 3.43118,1.716038 4.96525,2.122033 7.42307,1.964529 4.36976,-0.280022 7.3511597,-2.167496 13.6485194,-8.640657 2.47386,-2.542914 6.2243297,-6.396076 8.3343796,-8.562582 4.7503898,-4.877488 8.546269,-7.549644 10.359779,-7.292892 0.413961,0.05861 0.620431,0.263341 0.620431,0.615216 0,0.385149 -0.535161,0.814852 -1.984381,1.593337 -3.044449,1.63541 -4.4215592,2.668629 -7.0280492,5.272985 -2.5337797,2.531719 -4.0219497,4.550485 -5.2756597,7.156686 -0.41957,0.87219 -1.08922973,2.122346 -1.48812973,2.778125 -0.69545,1.143293 -1.69466997,3.828683 -2.36341997,6.351702 -0.91977,3.470037 -1.07571,4.71051 -1.21402,9.657292 -0.13444,4.808075 -0.0971,5.489134 0.40858,7.452416 0.30609,1.188413 0.55654,2.449695 0.55654,2.802851 0,0.850254 0.8083,3.1625 1.98068997,5.66597 l 0.95063,2.02995 1.33308973,-1.30268 C 5.670102,99.607934 8.9792718,92.809216 10.238332,85.928331 c 0.980209,-5.356884 0.999209,-5.415542 1.783659,-5.506133 0.45328,-0.05234 0.91314,0.119394 1.26687,0.473118 0.82874,0.828746 0.89157,0.591018 -3.4631093,13.102808 -1.3120299,3.76972 -1.3873499,4.131776 -1.5019399,7.219546 -0.0977,2.63275 -0.0352,3.47448 0.32872,4.42739 1.1535099,3.02042 9.4236492,10.38968 12.6281702,11.25257 1.311959,0.35327 2.314349,0.0478 4.388589,-1.3373 2.5765,-1.72052 4.94127,-5.07331 9.30651,-13.1948 1.573701,-2.927856 2.326681,-4.654791 2.686571,-6.161596 0.96014,-4.019961 1.71881,-4.693156 4.02015,-3.567213 1.74846,0.855443 4.15602,3.101607 4.15602,3.877421 0,1.383615 -1.04138,2.127134 -4.37871,3.126285 -1.68166,0.503463 -1.91185,0.656273 -2.33951,1.553083 -0.26088,0.54708 -2.11561,3.61676 -4.121621,6.82153 -2.00601,3.20476 -4.14245,6.70828 -4.74764,7.7856 -1.56808,2.79135 -2.60195,6.02929 -2.92279,9.15375 -1.123919,10.94505 -2.01864,14.33399 -4.73781,17.94552 -1.059359,1.407 -3.84732,3.63592 -6.152849,4.91906 -5.60586,3.11996 -14.1324399,4.53537 -22.3251193,3.70597 z M -17.661457,114.07332 c 5.62399,-1.3069 10.6388197,-3.57077 15.0351494,-6.78739 1.36741,-1.00048 1.39528,-1.04628 0.94166,-1.54752 -0.25709,-0.28409 -1.36163,-0.95828 -2.45451,-1.4982 -1.8195197,-0.8989 -2.1666197,-0.97948 -4.1166597,-0.95567 -4.5117097,0.0551 -13.8660197,3.74406 -15.3893497,6.06895 -0.63475,0.96876 -0.88934,2.46537 -0.71115,4.18049 l 0.16043,1.54418 1.87815,-0.17963 c 1.03298,-0.0988 3.12831,-0.47014 4.65628,-0.82521 z"
         style="fill:#ef6622;stroke-width:0.26458335" />
      <path
         inkscape:connector-curvature="0"
         id="path1198"
         d="m -18.389067,140.14002 c -0.47758,-0.49458 -0.42151,-1.39322 0.24941,-3.99672 l 0.59395,-2.30484 -0.73304,-2.25092 c -0.83521,-2.56463 -3.31319,-7.73202 -4.95276,-10.32809 -0.60926,-0.96471 -1.04602,-1.81574 -0.97056,-1.8912 0.2996,-0.2996 2.30727,0.45549 2.30727,0.86777 0,0.23134 0.34754,1.03042 0.77231,1.77574 1.88254,3.3032 2.79194,4.99485 4.25351,7.91235 1.31803,2.63099 1.78278,3.29763 2.97735,4.27072 0.84006,0.68431 1.61977,1.60601 1.91792,2.26718 0.45017,0.99831 0.46237,1.18539 0.11742,1.79997 -0.56872,1.01324 -2.58401,1.94297 -4.53626,2.09274 -1.16079,0.0891 -1.76605,0.024 -1.99652,-0.2147 z m -9.59115,-25.40065 c 0,-0.68738 -3.35367,-3.44225 -7.66481,-6.29624 -6.94781,-4.59948 -9.08189,-6.95014 -10.77367,-11.867028 -0.64117,-1.863466 -0.70633,-2.419813 -0.72035,-6.149854 -0.0139,-3.690678 0.0603,-4.390586 0.74147,-6.994649 4.40418,-16.83773 18.81739,-30.524428 35.78503,-33.981257 4.1531097,-0.846114 7.3946094,-1.161632 10.86410937,-1.057479 3.67599973,0.110352 4.16409963,0.318581 3.50514973,1.495338 -0.39988,0.714111 -0.4235,0.719183 -4.09715973,0.879867 -5.70132967,0.249372 -9.45371967,1.074537 -14.98900937,3.296142 -7.21821,2.89705 -12.96536,7.119367 -14.78694,10.863661 -0.81749,1.680388 -0.98984,4.317322 -0.37667,5.763229 0.73851,1.741463 3.14191,3.88251 5.91522,5.269532 3.43118,1.716038 4.96525,2.122033 7.42307,1.964529 4.36976,-0.280022 7.3511597,-2.167496 13.6485194,-8.640657 2.47386,-2.542914 6.2243297,-6.396076 8.3343796,-8.562582 4.7503898,-4.877488 8.546269,-7.549644 10.359779,-7.292892 0.413961,0.05861 0.620431,0.263341 0.620431,0.615216 0,0.385149 -0.535161,0.814852 -1.984381,1.593337 -3.044449,1.63541 -4.4215592,2.668629 -7.0280492,5.272985 -2.5337797,2.531719 -4.0219497,4.550485 -5.2756597,7.156686 -0.41957,0.87219 -1.08922973,2.122346 -1.48812973,2.778125 -0.69545,1.143293 -1.69466997,3.828683 -2.36341997,6.351702 -0.91977,3.470037 -1.07571,4.71051 -1.21402,9.657292 -0.13444,4.808075 -0.0971,5.489134 0.40858,7.452416 0.30609,1.188413 0.55654,2.449695 0.55654,2.802851 0,0.849328 0.80798,3.16181 1.97677997,5.65762 0.5207,1.11188 0.91401,2.03446 0.87403,2.05019 -0.04,0.0157 -0.39148,0.30913 -0.78111,0.652 l -0.70841997,0.62341 -0.89024,-0.67902 c -3.2233597,-2.45857 -6.1989497,-2.74876 -11.4512494,-1.11675 -5.94321,1.84669 -9.39365,3.68004 -10.36272,5.50611 -0.33984,0.64037 -0.44855,1.42806 -0.42046,3.04649 l 0.0379,2.18282 h -1.83724 c -1.16773,0 -1.83725,-0.10682 -1.83725,-0.29314 z"
         style="fill:#86a93c;stroke-width:0.26458335" />
    </g>
    <g
       transform="matrix(0.48436109,0,0,0.48436109,349.723,99.790628)"
       id="g1221"
       style="display:inline">
      <path
         style="fill:#33a9c5;stroke-width:0.26458335"
         d="m -5.8875073,151.52494 c -8.0401997,-0.81397 -16.5568797,-4.35806 -23.1257497,-9.62346 -2.59407,-2.07932 -6.53632,-6.29505 -8.549,-9.14204 -2.15618,-3.04999 -5.03851,-8.51087 -4.9218,-9.32488 0.0512,-0.35721 0.3641,-0.68427 0.801,-0.83728 1.19789,-0.41953 1.93748,0.14014 3.0151,2.28163 4.91311,9.76345 17.34594,19.53436 24.83764,19.51978 1.43603,-0.003 3.65588,-0.88129 4.4115297,-1.74585 1.68394,-1.92663 2.32598,-5.30988 1.8799,-9.90619 -0.23299,-2.40065 -0.4391,-3.26057 -1.10646,-4.61616 -1.5386697,-3.12549 -5.3386997,-5.89449 -10.3165797,-7.51749 -1.97176,-0.64288 -2.4037,-0.68102 -2.4037,-0.21226 0,0.18762 1.02933,2.18192 2.28741,4.43177 1.25807,2.24985 2.64566,4.86454 3.08353,5.81042 0.55695,1.20311 1.32721,2.23649 2.5638,3.43959 0.97221,0.94588 1.89647,2.0962 2.0539,2.55625 0.59869,1.7495 -1.01792,3.3599 -4.05519,4.03961 -1.6655,0.37272 -2.77279,0.20462 -3.4291,-0.5206 -0.55266,-0.61068 -0.43415,-1.89238 0.4117,-4.45267 l 0.55658,-1.68471 -0.69079,-2.15175 c -1.51292,-4.71268 -6.09136,-12.98018 -7.33558,-13.2462 -0.3331,-0.0712 -2.86186,-0.68172 -5.61947,-1.35666 -7.50107,-1.83594 -10.76061,-3.08024 -13.57315,-5.18143 -1.10705,-0.82706 -1.38906,-1.19058 -1.38906,-1.79053 0,-0.41403 0.18431,-0.90575 0.40958,-1.09271 0.46594,-0.38669 0.80548,-0.24175 3.95605,1.68877 1.01864,0.62418 2.74505,1.5012 3.83645,1.94893 3.21161,1.31752 9.26426,2.56505 9.62363,1.98357 0.3187,-0.51567 -2.8093,-3.14628 -7.14943,-6.0126 -6.94639,-4.58754 -9.06763,-6.87051 -10.7185,-11.535672 -1.51958,-4.294138 -1.57948,-8.558782 -0.19746,-14.057245 3.14541,-12.514187 12.82179,-24.300542 24.81231,-30.222719 7.06788,-3.490861 13.1707797,-4.901243 21.20829937,-4.901243 3.87254973,0 4.26949973,0.04418 4.75448973,0.529166 0.6786599,0.678662 0.6664199,0.854612 -0.12484,1.79498 l -0.65401,0.777248 -4.4392197,0.148713 c -3.7761797,0.126502 -4.8998997,0.268323 -7.5235597,0.949525 -10.0637297,2.612923 -18.8433897,8.056103 -21.1306197,13.100474 -0.99141,2.186517 -1.01811,3.565814 -0.10451,5.399167 1.14796,2.303658 3.69639,4.203317 7.89316,5.883734 2.68056,1.073314 5.48673,1.160536 7.95964,0.247401 2.18777,-0.807844 5.5984197,-3.114128 7.7369697,-5.23175 l 1.7880297,-1.770531 -7.7627294,-0.07018 c -7.65381,-0.0692 -7.79229,-0.06084 -9.86939,0.595313 -3.91391,1.236405 -4.99161,0.794171 -4.98717,-2.046487 0.002,-1.187564 0.18211,-2.039225 0.63954,-3.021668 1.14263,-2.4541 2.06986,-2.420209 4.46153,0.163073 0.82839,0.894757 1.89905,1.790992 2.37925,1.991632 1.07455,0.448978 7.67173,0.933109 12.7153297,0.933109 4.3985297,0 3.3720997,0.612292 8.7095994,-5.195481 5.7122697,-6.215565 9.2500799,-9.111989 12.3065889,-10.075467 1.377481,-0.434213 1.408581,-0.431978 1.983101,0.142543 0.803759,0.80376 0.482009,1.220502 -2.080181,2.694279 -1.15022,0.661608 -2.68063,1.608904 -3.400929,2.105102 -3.3698802,2.321446 -8.9461699,9.047006 -7.9590599,9.59942 0.22514,0.125992 0.50642,0.169076 0.62508,0.09574 0.11865,-0.07333 1.04045,-0.308204 2.0484199,-0.521933 1.0079797,-0.213729 3.3209698,-1.093088 5.13998,-1.95413 7.087949,-3.355136 10.064409,-4.158722 15.345829,-4.143086 3.99222,0.01182 4.87945,0.188568 8.20209,1.63397 7.914761,3.443049 14.916761,13.434563 17.700831,25.258217 1.587951,6.743862 1.635601,14.839856 0.12578,21.371246 -1.16227,5.02786 -3.07287,9.93258 -5.5308,14.19813 -1.48126,2.5706 -3.45436,5.38375 -3.77134,5.377 -0.69359,-0.0148 -1.4633,-1.33838 -1.17862,-2.02676 0.10979,-0.26551 0.78979,-1.3757 1.5111,-2.46711 5.03376,-7.61652 7.71317,-21.55206 5.68082,-29.545791 -0.64297,-2.528943 -1.28988,-3.727773 -2.72587,-5.05142 -1.4504,-1.336926 -1.92525,-1.470893 -4.72905,-1.334177 -2.43675,0.118819 -3.59279,0.561644 -6.620821,2.536132 -5.65359,3.686532 -7.2459,8.19055 -5.72626,16.197326 0.29,1.52797 0.55128,3.03105 0.58064,3.34017 0.0518,0.54535 0.0741,0.54142 0.75147,-0.13229 1.776331,-1.76676 6.986181,-11.533121 7.662201,-14.363528 0.96014,-4.019961 1.71881,-4.693156 4.02015,-3.567213 1.74846,0.855443 4.15602,3.101607 4.15602,3.877421 0,1.383615 -1.04138,2.127134 -4.37871,3.126285 -1.68166,0.503465 -1.91185,0.656275 -2.33951,1.553085 -0.26088,0.54708 -2.13121,3.63436 -4.156291,6.86063 -3.294799,5.24913 -4.64388,7.77595 -4.32295,8.09688 0.10742,0.10742 1.348741,4.30501 2.09477,7.08357 0.98611,3.67277 1.29601,5.80893 1.30507,8.99584 0.0104,3.64678 -0.25484,4.58965 -1.25101,4.44783 -0.562859,-0.0801 -0.575079,-0.16221 -0.484659,-3.2572 0.131909,-4.51575 -0.55305,-8.18812 -2.521391,-13.5182 -0.48385,-1.31023 -0.50898,-1.3321 -0.91182,-0.79375 -0.68508,0.91554 -1.24597,3.04623 -1.53873,5.84528 -0.944319,9.02853 -1.61947,12.35011 -3.11926,15.34584 -2.45841,4.91054 -7.956519,8.55772 -15.7313892,10.43542 -4.0709398,0.98317 -9.5061794,1.2817 -14.3701691,0.78929 z M 29.942301,117.41376 c 0.29703,-0.6237 0.29152,-0.63214 -0.0965,-0.14787 -0.22631,0.28248 -0.41147,0.62974 -0.41147,0.7717 0,0.33617 0.12221,0.18607 0.50793,-0.62383 z m -5.58241,-1.07642 c 0.89354,-0.4465 1.875681,-1.16443 2.182551,-1.59537 0.30686,-0.43095 0.44284,-0.75024 0.30218,-0.70953 -0.14066,0.0407 -0.82075,-0.69988 -1.511301,-1.64577 -2.03469,-2.787 -6.83746,-7.35357 -9.789569,-9.30812 -3.809251,-2.52204 -6.6040802,-3.958016 -6.9772202,-3.584874 -0.52173,0.521724 -0.36823,5.173904 0.21294,6.453904 1.3156102,2.89753 8.8955092,9.6741 12.0983002,10.81611 1.434139,0.51136 1.661239,0.48355 3.482119,-0.42635 z m -42.021348,-2.26946 c 3.56856,-0.82227 6.65898,-1.94691 9.7009897,-3.53031 3.03161,-1.57799 6.1740097,-3.6707 6.1740097,-4.11165 0,-0.38337 -2.02618,-1.7291 -3.5380397,-2.34985 -1.50181,-0.61663 -4.05094,-0.5267 -6.7741897,0.23897 -6.62038,1.8614 -10.75657,3.96454 -11.55497,5.87538 -0.42336,1.01324 -0.47317,3.60299 -0.0833,4.33146 0.23992,0.4483 0.4649,0.49233 1.78594,0.34953 0.83129,-0.0899 2.76159,-0.45146 4.28956,-0.80353 z m 46.302078,-1.8135 c 0.34178,-0.3638 0.56188,-0.66146 0.48912,-0.66146 -0.0728,0 -0.41193,0.29766 -0.7537,0.66146 -0.34178,0.3638 -0.56188,0.66146 -0.48912,0.66146 0.0728,0 0.41193,-0.29766 0.7537,-0.66146 z M 2.2145421,102.92781 c 1.45367,-1.51866 3.0134299,-3.694251 3.2034099,-4.468171 0.12754,-0.51961 -0.0385,-0.600787 -2.0433699,-0.998947 -1.2002,-0.238358 -2.95842973,-0.505865 -3.90716973,-0.594461 l -1.72498997,-0.161081 0.20519,1.027737 c 0.38232,1.91498 2.39297997,6.451693 2.85936967,6.451693 0.11252,0 0.74592003,-0.56554 1.40756003,-1.25677 z m 6.7575597,-4.89479 c -0.0734,-0.181901 -0.13345,-0.03307 -0.13345,0.330729 0,0.363802 0.0601,0.51263 0.13345,0.330729 0.0734,-0.181901 0.0734,-0.479557 0,-0.661458 z m 0.7992599,-2.629297 c -0.0845,-0.211066 -0.14716,-0.148373 -0.15985,0.159853 -0.0115,0.278913 0.051,0.435184 0.13896,0.347266 0.0879,-0.08792 0.0973,-0.316125 0.0209,-0.507119 z M 1.2680821,92.470226 C 3.4294121,90.914693 4.377252,88.792166 6.1389417,81.562706 6.6268118,79.560612 6.8046018,75.33298 6.4465418,74.248064 5.9916317,72.869676 4.598122,71.683745 2.5671321,70.946534 1.1463321,70.430812 0.72695207,70.36637 0.55420237,70.63723 c -1.16562,1.827603 -2.95669997,7.900132 -3.63359997,12.319449 -0.38356,2.504171 -0.37724,7.885907 0.0118,9.996965 l 0.3063,1.662364 1.35918,-0.601091 c 0.74754997,-0.330602 1.94915997,-1.025713 2.6702597,-1.544691 z m 6.4623497,0.998731 c 0,-0.145521 -0.11541,-0.08599 -0.25648,0.132292 -0.14106,0.218281 -0.25648,0.515937 -0.25648,0.661458 0,0.145521 0.11542,0.08599 0.25648,-0.132292 0.14107,-0.218281 0.25648,-0.515937 0.25648,-0.661458 z m 0.9826,-3.092318 c -0.0845,-0.211066 -0.14716,-0.148373 -0.15985,0.159853 -0.0115,0.278914 0.051,0.435184 0.13896,0.347266 0.0879,-0.08792 0.0973,-0.316124 0.0209,-0.507119 z m 0.78824,-2.926953 c -0.0734,-0.181901 -0.13346,-0.03307 -0.13346,0.330729 0,0.363802 0.0601,0.51263 0.13346,0.330729 0.0734,-0.181901 0.0734,-0.479557 0,-0.661458 z m 3.2416992,-0.198438 c -0.01,-0.261689 -0.092,-0.216625 -0.24193,0.132292 -0.31256,0.727363 -0.31256,1.145109 0,0.661458 0.14106,-0.218281 0.24993,-0.575469 0.24193,-0.79375 z m 0.79375,-2.38125 c -0.01,-0.261689 -0.092,-0.216625 -0.24193,0.132292 -0.31256,0.727363 -0.31256,1.145109 0,0.661458 0.14106,-0.218281 0.24993,-0.575469 0.24193,-0.79375 z m -3.500779,-0.04961 c -0.0845,-0.211066 -0.1471503,-0.148373 -0.1598503,0.159853 -0.0115,0.278913 0.0511,0.435184 0.1389703,0.347266 0.0879,-0.08792 0.0973,-0.316125 0.0209,-0.507119 z m 0.26459,-2.116667 c -0.0845,-0.211066 -0.14716,-0.148373 -0.15985,0.159853 -0.0115,0.278913 0.051,0.435184 0.13896,0.347266 0.0879,-0.08792 0.0973,-0.316124 0.0209,-0.507119 z m 3.845679,-1.586056 c -0.16567,-0.165666 -0.20255,0.0083 -0.10411,0.491125 0.11291,0.553763 0.17944,0.620295 0.25655,0.25654 0.0573,-0.270118 -0.0113,-0.606568 -0.15244,-0.747665 z m -1.57399,-1.183719 c -0.17913,-0.07247 -0.53632,-0.07688 -0.79375,-0.0098 -0.25743,0.06708 -0.11087,0.126381 0.32569,0.131773 0.43656,0.0054 0.64719,-0.04949 0.46806,-0.12197 z"
         id="path1215"
         inkscape:connector-curvature="0" />
      <path
         style="fill:#ef6622;stroke-width:0.26458335"
         d="m -5.8875073,151.52494 c -8.0401997,-0.81397 -16.5568797,-4.35806 -23.1257497,-9.62346 -2.59407,-2.07932 -6.53632,-6.29505 -8.549,-9.14204 -2.15618,-3.04999 -5.03851,-8.51087 -4.9218,-9.32488 0.0512,-0.35721 0.3641,-0.68427 0.801,-0.83728 1.19789,-0.41953 1.93748,0.14014 3.0151,2.28163 4.91311,9.76345 17.34594,19.53436 24.83764,19.51978 1.43603,-0.003 3.65588,-0.88129 4.4115297,-1.74585 1.68394,-1.92663 2.32598,-5.30988 1.8799,-9.90619 -0.23299,-2.40065 -0.4391,-3.26057 -1.10646,-4.61616 -1.7962497,-3.64871 -5.8416597,-6.27093 -12.6541397,-8.20236 -0.83433,-0.23655 -0.77986,0.40468 0.177,2.08363 1.88254,3.3032 2.79194,4.99485 4.25351,7.91235 1.31803,2.63099 1.78278,3.29763 2.97735,4.27072 0.84006,0.68431 1.61977,1.60601 1.91792,2.26718 0.45017,0.99831 0.46237,1.18539 0.11742,1.79997 -0.54943,0.97888 -2.55946,1.92573 -4.45241,2.09738 -2.62232,0.23779 -2.84599,-0.27725 -1.83096,-4.21606 l 0.59395,-2.30484 -0.73022,-2.24225 c -0.85317,-2.61978 -3.10995,-7.32407 -4.97662,-10.37383 -1.514,-2.47356 -0.8045,-2.13448 -8.28629,-3.96024 -7.48991,-1.82775 -10.75745,-3.07423 -13.57315,-5.17778 -1.10705,-0.82706 -1.38906,-1.19058 -1.38906,-1.79053 0,-0.41403 0.18431,-0.90575 0.40958,-1.09271 0.46594,-0.38669 0.80548,-0.24175 3.95605,1.68877 3.47172,2.1273 8.01743,3.62335 12.23698,4.02734 1.4465,0.13848 1.91822,0.10315 1.91822,-0.14367 0,-0.71994 -3.2724,-3.42264 -7.66481,-6.33043 -6.94781,-4.59948 -9.08189,-6.95014 -10.77367,-11.867028 -0.64117,-1.863466 -0.70633,-2.419813 -0.72035,-6.149854 -0.0139,-3.690678 0.0603,-4.390586 0.74147,-6.994649 4.40418,-16.83773 18.81739,-30.524428 35.78503,-33.981257 4.1531097,-0.846114 7.3946094,-1.161632 10.86410937,-1.057479 3.67599973,0.110352 4.16409963,0.318581 3.50514973,1.495338 -0.39988,0.714111 -0.4235,0.719183 -4.09715973,0.879867 -5.70132967,0.249372 -9.45371967,1.074537 -14.98900937,3.296142 -7.21821,2.89705 -12.96536,7.119367 -14.78694,10.863661 -0.81749,1.680388 -0.98984,4.317322 -0.37667,5.763229 0.73851,1.741463 3.14191,3.88251 5.91522,5.269532 3.43118,1.716038 4.96525,2.122033 7.42307,1.964529 4.36976,-0.280022 7.3511597,-2.167496 13.6485194,-8.640657 2.47386,-2.542914 6.2243297,-6.396076 8.3343796,-8.562582 4.7503898,-4.877488 8.546269,-7.549644 10.359779,-7.292892 0.413961,0.05861 0.620431,0.263341 0.620431,0.615216 0,0.385149 -0.535161,0.814852 -1.984381,1.593337 -3.044449,1.63541 -4.4215592,2.668629 -7.0280492,5.272985 -2.5337797,2.531719 -4.0219497,4.550485 -5.2756597,7.156686 -0.41957,0.87219 -1.08922973,2.122346 -1.48812973,2.778125 -0.69545,1.143293 -1.69466997,3.828683 -2.36341997,6.351702 -0.91977,3.470037 -1.07571,4.71051 -1.21402,9.657292 -0.13444,4.808075 -0.0971,5.489134 0.40858,7.452416 0.30609,1.188413 0.55654,2.449695 0.55654,2.802851 0,0.850254 0.8083,3.1625 1.98068997,5.66597 l 0.95063,2.02995 1.33308973,-1.30268 C 5.670102,99.607934 8.9792718,92.809216 10.238332,85.928331 c 0.980209,-5.356884 0.999209,-5.415542 1.783659,-5.506133 0.45328,-0.05234 0.91314,0.119394 1.26687,0.473118 0.82874,0.828746 0.89157,0.591018 -3.4631093,13.102808 -1.3120299,3.76972 -1.3873499,4.131776 -1.5019399,7.219546 -0.0977,2.63275 -0.0352,3.47448 0.32872,4.42739 1.1535099,3.02042 9.4236492,10.38968 12.6281702,11.25257 1.311959,0.35327 2.314349,0.0478 4.388589,-1.3373 2.5765,-1.72052 4.94127,-5.07331 9.30651,-13.1948 1.573701,-2.927856 2.326681,-4.654791 2.686571,-6.161596 0.96014,-4.019961 1.71881,-4.693156 4.02015,-3.567213 1.74846,0.855443 4.15602,3.101607 4.15602,3.877421 0,1.383615 -1.04138,2.127134 -4.37871,3.126285 -1.68166,0.503463 -1.91185,0.656273 -2.33951,1.553083 -0.26088,0.54708 -2.11561,3.61676 -4.121621,6.82153 -2.00601,3.20476 -4.14245,6.70828 -4.74764,7.7856 -1.56808,2.79135 -2.60195,6.02929 -2.92279,9.15375 -1.123919,10.94505 -2.01864,14.33399 -4.73781,17.94552 -1.059359,1.407 -3.84732,3.63592 -6.152849,4.91906 -5.60586,3.11996 -14.1324399,4.53537 -22.3251193,3.70597 z M -17.661457,114.07332 c 5.62399,-1.3069 10.6388197,-3.57077 15.0351494,-6.78739 1.36741,-1.00048 1.39528,-1.04628 0.94166,-1.54752 -0.25709,-0.28409 -1.36163,-0.95828 -2.45451,-1.4982 -1.8195197,-0.8989 -2.1666197,-0.97948 -4.1166597,-0.95567 -4.5117097,0.0551 -13.8660197,3.74406 -15.3893497,6.06895 -0.63475,0.96876 -0.88934,2.46537 -0.71115,4.18049 l 0.16043,1.54418 1.87815,-0.17963 c 1.03298,-0.0988 3.12831,-0.47014 4.65628,-0.82521 z"
         id="path1217"
         inkscape:connector-curvature="0" />
      <path
         style="fill:#86a93c;stroke-width:0.26458335"
         d="m -18.389067,140.14002 c -0.47758,-0.49458 -0.42151,-1.39322 0.24941,-3.99672 l 0.59395,-2.30484 -0.73304,-2.25092 c -0.83521,-2.56463 -3.31319,-7.73202 -4.95276,-10.32809 -0.60926,-0.96471 -1.04602,-1.81574 -0.97056,-1.8912 0.2996,-0.2996 2.30727,0.45549 2.30727,0.86777 0,0.23134 0.34754,1.03042 0.77231,1.77574 1.88254,3.3032 2.79194,4.99485 4.25351,7.91235 1.31803,2.63099 1.78278,3.29763 2.97735,4.27072 0.84006,0.68431 1.61977,1.60601 1.91792,2.26718 0.45017,0.99831 0.46237,1.18539 0.11742,1.79997 -0.56872,1.01324 -2.58401,1.94297 -4.53626,2.09274 -1.16079,0.0891 -1.76605,0.024 -1.99652,-0.2147 z m -9.59115,-25.40065 c 0,-0.68738 -3.35367,-3.44225 -7.66481,-6.29624 -6.94781,-4.59948 -9.08189,-6.95014 -10.77367,-11.867028 -0.64117,-1.863466 -0.70633,-2.419813 -0.72035,-6.149854 -0.0139,-3.690678 0.0603,-4.390586 0.74147,-6.994649 4.40418,-16.83773 18.81739,-30.524428 35.78503,-33.981257 4.1531097,-0.846114 7.3946094,-1.161632 10.86410937,-1.057479 3.67599973,0.110352 4.16409963,0.318581 3.50514973,1.495338 -0.39988,0.714111 -0.4235,0.719183 -4.09715973,0.879867 -5.70132967,0.249372 -9.45371967,1.074537 -14.98900937,3.296142 -7.21821,2.89705 -12.96536,7.119367 -14.78694,10.863661 -0.81749,1.680388 -0.98984,4.317322 -0.37667,5.763229 0.73851,1.741463 3.14191,3.88251 5.91522,5.269532 3.43118,1.716038 4.96525,2.122033 7.42307,1.964529 4.36976,-0.280022 7.3511597,-2.167496 13.6485194,-8.640657 2.47386,-2.542914 6.2243297,-6.396076 8.3343796,-8.562582 4.7503898,-4.877488 8.546269,-7.549644 10.359779,-7.292892 0.413961,0.05861 0.620431,0.263341 0.620431,0.615216 0,0.385149 -0.535161,0.814852 -1.984381,1.593337 -3.044449,1.63541 -4.4215592,2.668629 -7.0280492,5.272985 -2.5337797,2.531719 -4.0219497,4.550485 -5.2756597,7.156686 -0.41957,0.87219 -1.08922973,2.122346 -1.48812973,2.778125 -0.69545,1.143293 -1.69466997,3.828683 -2.36341997,6.351702 -0.91977,3.470037 -1.07571,4.71051 -1.21402,9.657292 -0.13444,4.808075 -0.0971,5.489134 0.40858,7.452416 0.30609,1.188413 0.55654,2.449695 0.55654,2.802851 0,0.849328 0.80798,3.16181 1.97677997,5.65762 0.5207,1.11188 0.91401,2.03446 0.87403,2.05019 -0.04,0.0157 -0.39148,0.30913 -0.78111,0.652 l -0.70841997,0.62341 -0.89024,-0.67902 c -3.2233597,-2.45857 -6.1989497,-2.74876 -11.4512494,-1.11675 -5.94321,1.84669 -9.39365,3.68004 -10.36272,5.50611 -0.33984,0.64037 -0.44855,1.42806 -0.42046,3.04649 l 0.0379,2.18282 h -1.83724 c -1.16773,0 -1.83725,-0.10682 -1.83725,-0.29314 z"
         id="path1219"
         inkscape:connector-curvature="0" />
    </g>
  </g>
</svg>
